<svg xmlns="http://www.w3.org/2000/svg" xmlns:xlink="http://www.w3.org/1999/xlink" width="212.003"
    height="212.003" viewBox="0 0 212.003 212.003">
    <defs>
        <path id="path-1" fill-rule="evenodd"
            d="M73.29545466.79409091C66.03355919.57636364 59.00102282 4.14618182 55.11363645 10.8793182c-3.5584 6.16372728-3.65372728 13.38795457-.71022727 19.31818185l-31.1079546 53.6931819c-6.5499.46286364-12.80497275 4.11277273-16.3352273 10.22727274C2.5175 101.8129547 3.7890591 111.15272745 9.23295456 117.55545473l7.38636365-12.78409093c1.85045455-3.205 5.96174092-4.3034091 9.23295456-2.41477273 3.27121364 1.88863637 4.40727273 6.02795455 2.55681818 9.23295456l-7.38636364 12.78409093c8.26707728 1.51318182 17.00613639-2.10613637 21.44886367-9.80113638 3.53025455-6.11450001 3.44227273-13.2723182.56818181-19.1761364l31.1079546-53.83522735c6.5605682-.45531818 12.7998591-4.10381819 16.3352273-10.22727274 4.44272728-7.69500002 3.17116818-17.03431821-2.27272728-23.43750004l-7.38636365 12.78409093c-1.85045455 3.205-5.96174092 4.3034091-9.23295456 2.41477273-3.27121364-1.88863637-4.40727273-6.02795456-2.55681818-9.23295456l7.38636364-12.78409093C75.3870683.88909091 74.3328683.825 73.29545466.79409091z" />
        <path id="path-3" fill-rule="evenodd"
            d="M47.2354715 1.701c19.05964289 0 28.52940005 10.93757145 27.6123429 27.91971433 0-6.342-6.2453143-11.97257145-15.60750002-11.97257145-9.45544287 0-13.8635143 7.65257145-13.99358574 12.77528574H32.42267148c0-4.05428572-3.8048143-7.34057144-8.39957144-7.34057144-4.5947143 0-8.27952859 3.28628572-8.27952859 7.34057144H2.23547143V1.701h13.12650002c0 4.05428572 3.6848143 7.34057144 8.27957144 7.34057144 4.5947143 0 8.39952859-3.28628572 8.39952859-7.34057144H47.2354715z" />
        <rect id="rect-4" width="12.857" height="94.286" x="32.236" y="30.446" rx="0" ry="0" />
    </defs>
    <g>
        <g transform="translate(55.98703629 41.57883744)">
            <g>
                <use fill="rgb(210,221,225)" xlink:href="#path-1" />
                <use fill-opacity="0" stroke="rgb(55,52,73)" stroke-width="1"
                    xlink:href="#path-1" />
            </g>
            <path fill="none" stroke="rgb(55,52,73)" stroke-linecap="round" stroke-linejoin="miter"
                stroke-width="1" d="M56.087791 49.41636371L40.10779097 77.09454558" />
        </g>
        <g transform="rotate(-46.999888 118.3002551 8.45498199)">
            <g>
                <use fill="rgb(205,219,233)" xlink:href="#path-3" />
                <use fill-opacity="0" stroke="rgb(55,52,73)" stroke-linecap="round"
                    stroke-linejoin="round" stroke-width="1" xlink:href="#path-3" />
            </g>
            <g>
                <use fill="rgb(230,204,155)" xlink:href="#rect-4" />
                <use fill-opacity="0" stroke="rgb(55,52,73)" stroke-linecap="round"
                    stroke-linejoin="round" stroke-width="1" xlink:href="#rect-4" />
            </g>
        </g>
    </g>
</svg>
