<svg width="224.766" height="57.579" viewBox="0 0 224.766 57.579"
    xmlns="http://www.w3.org/2000/svg">
    <g id="svgGroup" stroke-linecap="round" fill-rule="evenodd" font-size="9pt" stroke="#B39DDB"
        stroke-width="0.25mm" fill="#fff" style="stroke:#B39DDB;stroke-width:.25mm;fill:#fff">
        <path
            d="M 157.5 1.406 L 176.406 6.094 L 159.141 26.641 L 175 53.516 L 156.875 56.719 L 145 40.625 L 144.375 55.938 L 128.125 56.563 L 129.375 0.625 L 147.578 1.641 L 146.172 17.734 L 157.5 1.406 Z M 206.016 2.344 L 224.766 3.672 L 206.406 33.672 L 206.953 55.781 L 186.875 55.781 L 187.344 33.828 L 173.047 4.844 L 192.969 2.344 L 199.219 19.219 L 206.016 2.344 Z M 124.648 3.203 L 123.242 19.688 A 14.136 14.136 0 0 0 121.29 19.29 A 12.868 12.868 0 0 0 121.016 19.258 A 20.888 20.888 0 0 0 118.789 19.141 A 19.729 19.729 0 0 0 113.891 19.738 A 18.406 18.406 0 0 0 113.496 19.844 A 13.821 13.821 0 0 0 110.177 21.238 A 12.45 12.45 0 0 0 109.043 21.992 A 10.639 10.639 0 0 0 105.957 25.645 A 9.912 9.912 0 0 0 104.995 28.548 A 13.442 13.442 0 0 0 104.805 30.859 A 12.56 12.56 0 0 0 104.928 32.665 Q 105.072 33.654 105.383 34.495 A 7.632 7.632 0 0 0 105.449 34.668 A 7.428 7.428 0 0 0 106.531 36.56 A 6.658 6.658 0 0 0 107.285 37.363 A 7.532 7.532 0 0 0 109.407 38.699 A 9.12 9.12 0 0 0 110.176 38.984 A 11.277 11.277 0 0 0 112.445 39.454 A 14.209 14.209 0 0 0 113.945 39.531 A 15.492 15.492 0 0 0 116.534 39.307 A 17.359 17.359 0 0 0 116.914 39.238 A 23.906 23.906 0 0 0 119.961 38.438 Q 121.484 37.93 122.891 37.266 A 28.323 28.323 0 0 0 124.89 36.226 A 24.73 24.73 0 0 0 125.508 35.859 L 124.883 54.219 A 24.317 24.317 0 0 1 122.466 55.292 A 27.582 27.582 0 0 1 121.602 55.605 Q 119.844 56.211 117.988 56.66 Q 116.133 57.109 114.277 57.344 A 29.711 29.711 0 0 1 111.809 57.555 A 25.294 25.294 0 0 1 110.742 57.578 A 25.742 25.742 0 0 1 104.352 56.809 A 22.197 22.197 0 0 1 100.645 55.508 A 23.776 23.776 0 0 1 92.832 49.863 A 25.759 25.759 0 0 1 87.773 41.563 A 28.031 28.031 0 0 1 85.978 31.818 A 31.703 31.703 0 0 1 85.977 31.484 A 39.935 39.935 0 0 1 86.835 23.082 A 35.041 35.041 0 0 1 87.793 19.531 A 28.618 28.618 0 0 1 91.292 12.314 A 25.946 25.946 0 0 1 93.145 9.902 A 24.607 24.607 0 0 1 101.57 3.643 A 28.29 28.29 0 0 1 101.895 3.496 A 26.446 26.446 0 0 1 108.919 1.512 A 34.642 34.642 0 0 1 113.867 1.172 A 35.682 35.682 0 0 1 119.336 1.602 A 19.877 19.877 0 0 1 124.648 3.203 Z M 34.531 34.297 L 32.891 51.641 L 0 54.219 A 5965.351 5965.351 0 0 1 0.527 27.109 A 2775.102 2775.102 0 0 1 1.25 0 L 21.563 0 Q 20.664 8.555 19.844 17.09 Q 19.023 25.625 18.672 34.297 Q 20.508 34.375 22.305 34.375 L 25.938 34.375 A 232.123 232.123 0 0 0 30.234 34.336 A 232.123 232.123 0 0 1 34.531 34.297 Z M 83.828 33.496 A 28.32 28.32 0 0 0 84.648 26.641 A 32.755 32.755 0 0 0 84.453 23.014 A 26.222 26.222 0 0 0 82.832 16.309 A 25.762 25.762 0 0 0 82.478 15.453 A 22.219 22.219 0 0 0 77.715 8.418 A 21.18 21.18 0 0 0 75.865 6.791 A 23.067 23.067 0 0 0 69.746 3.398 A 26.242 26.242 0 0 0 65.63 2.228 A 31.694 31.694 0 0 0 59.414 1.641 A 25.079 25.079 0 0 0 58.976 1.644 A 22.384 22.384 0 0 0 52.734 2.617 A 23.523 23.523 0 0 0 46.855 5.352 Q 44.141 7.109 41.953 9.531 A 26.541 26.541 0 0 0 38.223 14.844 A 26.99 26.99 0 0 0 35.859 20.996 A 27.202 27.202 0 0 0 35.039 27.656 A 25.131 25.131 0 0 0 35.918 34.336 Q 36.797 37.539 38.379 40.332 Q 39.961 43.125 42.207 45.41 A 23.961 23.961 0 0 0 47.227 49.316 A 25.445 25.445 0 0 0 53.184 51.836 A 23.008 23.008 0 0 0 53.834 52.009 A 24.77 24.77 0 0 0 59.883 52.734 A 27.04 27.04 0 0 0 60.785 52.719 A 23.822 23.822 0 0 0 66.758 51.777 A 24.206 24.206 0 0 0 72.754 49.102 Q 75.508 47.383 77.715 44.98 A 25.632 25.632 0 0 0 81.465 39.688 Q 83.008 36.797 83.828 33.496 Z M 67.305 27.656 A 10.997 10.997 0 0 0 66.816 24.395 A 9.122 9.122 0 0 0 65.733 22.066 A 8.42 8.42 0 0 0 65.391 21.582 Q 64.453 20.352 63.066 19.59 A 6.166 6.166 0 0 0 60.808 18.882 A 7.774 7.774 0 0 0 59.883 18.828 A 8.687 8.687 0 0 0 58.055 19.013 A 6.983 6.983 0 0 0 56.602 19.492 Q 55.156 20.156 54.121 21.309 A 7.942 7.942 0 0 0 52.574 23.908 A 9.02 9.02 0 0 0 52.539 24.004 Q 51.992 25.547 51.992 27.266 Q 51.992 28.906 52.461 30.547 A 9.748 9.748 0 0 0 53.867 33.516 A 7.474 7.474 0 0 0 56.191 35.664 A 5.877 5.877 0 0 0 58.47 36.426 A 7.49 7.49 0 0 0 59.414 36.484 A 8.015 8.015 0 0 0 61.362 36.256 A 6.74 6.74 0 0 0 62.715 35.762 A 7.447 7.447 0 0 0 65.195 33.809 A 8.899 8.899 0 0 0 66.706 31.126 A 10.081 10.081 0 0 0 66.758 30.977 Q 67.305 29.375 67.305 27.656 Z"
            vector-effect="non-scaling-stroke" />
    </g>
</svg>
