<svg xmlns="http://www.w3.org/2000/svg" xmlns:xlink="http://www.w3.org/1999/xlink" width="400"
    height="457.062" viewBox="200 0 559 457.062">
    <defs>
        <rect id="rect-12" width="88" height="84" x="471" y="340" />
        <mask id="mask-13" maskContentUnits="userSpaceOnUse" maskUnits="userSpaceOnUse">
            <rect width="559" height="457.062" x="0" y="0" fill="black" />
            <use fill="white" xlink:href="#rect-12" />
        </mask>
    </defs>
    <g>
        <ellipse cx="209" cy="422" fill="rgb(68,23,127)" rx="83" ry="17" />
        <g transform="rotate(29.00001 141.71011934 547.95212012)">
            <path fill="rgb(178,139,103)" fill-rule="evenodd"
                d="M92.14334106 40.13393307c5.79481125 10.8011217 5.1062355 38.1990633-2.38304138 40.12952518-2.9867134.76986695-9.34929657-1.1159935-15.82492256-5.01914596L78 104H54l8.26227379-38.50987244c-4.60790944-5.40875053-7.72663903-12.03725052-7.2054975-19.464674 1.50155377-21.40047406 31.29175353-16.69264244 37.08656477-5.8915205z" />
            <path fill="rgb(25,24,71)" fill-rule="evenodd"
                d="M60.41813835 70.30752007C57.40590211 56.90645876 48.82453271 47.77140432 50.13511366 41.781703c1.31058096-5.98970131 6.98618226-7.44956992 6.98618226-7.44956992s2.93536725-11.87494836 18.93432334-10.10175676c15.9989561 1.7731916 25.76382832 8.41738238 21.54686261 23.03750155-3.87638315 0-8.55600605-1.40189123-15.02695191 1-3.07980753 1.1431656-4.40553724 7.09011364-4.40553724 7.09011364h-2.92419487s-4.25708145-7.05740147-8.39501917-5.1868049c-4.13793771 1.87059656-1.88124102 9.08737307-1.88124102 9.08737307l-1.44046163 11.04896038h-3.11093768z" />
        </g>
        <g transform="rotate(16.000006 -481.60530197 306.68520902)">
            <path fill="rgb(178,139,103)" fill-rule="evenodd"
                d="M116.6440448.00001877c1.80311795 24.60963525 117.96264032 97.06346987 118.64036268 99.09636852.45181491 1.35526576-36.15608996 85.68169546-36.15608996 85.68169546l10.15412933 3.94580576s56.1502841-89.30783775 53.26620908-98.82392247C258.4194865 76.27565816 172.4219552.26170116 172.4219552.26170116L116.6440448.00001877z" />
            <path fill="rgb(47,54,118)" fill-rule="evenodd"
                d="M201.80045735 172.08194519l16.5781789 6.03478664c34.95746453-39.44241511 48.65983917-71.98613223 46.16139463-88.56758073C262.04158635 72.9677026 174.7242558.06027698 174.7242558.06027698l-59.26908743.00002034c2.02231013 56.99223172 109.687696 99.25303383 111.12776428 101.681646 1.4400683 2.42861216-12.73194774 26.21496538-24.7824753 70.34000187z" />
            <path fill="rgb(228,228,228)" fill-rule="evenodd"
                d="M198.32624817 182.79044318c-.79617466-.85853999-2.15630648-.8525437-2.9448804.01298283 0 0-2.93362784 3.2199045-3.85876847 5.7617065-.92514062 2.541802-1.85312952 7.72648576-1.85312952 7.72648576l53.0003643 19.2905625s4.55182243-6.07797035.29894096-8.2426244c-4.25288148-2.16465406-7.03725855-3.67507142-7.03725855-3.67507142l-20.63694326-19.9480559c-.405078-.39155598-1.05349862-.37135493-1.43341745.04465703l-2.98149707 3.2647459s-4.82030135.42279247-7.39650063-.51486775c-2.57619929-.93766022-5.15690991-3.72052105-5.15690991-3.72052105z" />
        </g>
        <g transform="rotate(48.000017 86.02371155 253.65909829)">
            <path fill="rgb(178,139,103)" fill-rule="evenodd"
                d="M191.4562378 2.34082222l37.90377807-11.37841797q10.60647583-8.25667 20.008667-12.07377815c1.82299804-.34313011 4.84106444-.14385224 1.06962585 4.13438988-3.7714386 4.27823734-7.54600525 8.94791698-6.4691925 10.74180126 1.07679748 1.79388141 5.00015258.44158172 6.13566588 3.28320026.75698853 1.89441109-5.74308776 3.25123215-19.50027465 4.07045555l-29.47093201 17.3440876-9.67733765-16.12173843zm-3.3493805 66.82730865l31.89826965 23.42359162c8.651474 2.33448791 15.87950135 5.2389679 21.68408203 8.71346283 1.37112427 1.24939728 3.0282898 3.77965545-2.6581726 3.34236145-5.68644715-.43728638-11.6874237-.64151764-12.4720459 1.29804992-.3435669.84929657.12312317 1.7714615.6231842 2.75954438.641922 1.2684021 1.33882141 2.64546203.44728089 4.11650085q-.09751892.16090393-.23970032.2524109-2.17030335 1.39669799-14.74667358-13.37635804l-31.58764649-13.0986023 7.05142212-17.4309616z" />
            <path fill="rgb(32,38,162)" fill-rule="evenodd"
                d="M138.56072852 6.08677722c17.37071801 32.389551 42.48943587 57.21845568 78.9049352 83.02909531l-13.78837608 15.5469118c-40.65937664-15.10998425-62.11835306-24.2265257-72.65635056-54.82803339-2.64482372-7.68035799-4.49330856-32.16389817-6.07908477-45.04593529l13.6188762 1.29796157z" />
            <path fill="rgb(242,242,242)" fill-rule="evenodd"
                d="M90 114h77S140.83731614 34.2080716 140.2702156 4.47156148c-.01927423-1.01066401-1.88583708-2.79159676-2.71164535-2.55836776C128.5 4.47156148 118.1718001 0 118.1718001 0 99.91748497 29.35840682 93.6048263 65.50454992 90 114z" />
            <path fill="rgb(31,40,207)" fill-rule="evenodd"
                d="M137.48625183 44.79075623c12.02619934 51.58634185 11.47174072 93.81521606-15.07878113 93.81521606H81.35112762C74.83043671 94.78395081 91.96809387 34.02361679 107.85595703 3.37659454 108.46266174 2.2062769 109.7544098 0 112.79699707 0h11.9297638c.00524902.01579857.01049041.03159714.01573944.04739666 3.58997344.0293951 7.54340362.1606388 11.8247757.30276966C158.6084137 1.0818758 189.3412628 2.10212898 223.92266082-9l4.07733154 20.37347984c-31.21312714 20.07474709-62.8190689 35.62558556-90.51374054 33.41727639z" />
        </g>
        <ellipse cx="513" cy="422.5" fill="rgb(68,23,127)" rx="46" ry="12.5" />
        <g>
            <use fill="none" xlink:href="#rect-12" />
            <g mask="url(#mask-13)">
                <path fill="rgb(194,205,231)" fill-rule="evenodd"
                    d="M476.86660937 348.4h76.26660938c2.4303125 0 4.4 1.88015625 4.4 4.2v53.20005469c0 2.31984375-1.9696875 4.2-4.4 4.2h-76.26660938c-2.4303125 0-4.4-1.88015625-4.4-4.2V352.6c0-2.31984375 1.96985938-4.2 4.4-4.2z" />
                <path fill="rgb(172,183,208)" fill-rule="evenodd"
                    d="M476.86660937 379.19994531h76.26660938c2.4303125 0 4.4 1.88015625 4.4 4.2v22.39994532c0 2.31984375-1.9696875 4.2-4.4 4.2h-76.26660938c-2.4303125 0-4.4-1.88015625-4.4-4.2V383.3999453c0-2.31967968 1.96985938-4.2 4.4-4.2z" />
                <g>
                    <rect width="8.8" height="5.6" x="484.2" y="410" fill="rgb(156,176,195)" rx="0"
                        ry="0" />
                    <rect width="8.8" height="5.6" x="537" y="410" fill="rgb(156,176,195)" rx="0"
                        ry="0" />
                </g>
                <path fill="rgb(211,224,232)" fill-rule="evenodd"
                    d="M484.2 356.8h61.6c1.62060938 0 2.93339063 1.25294531 2.93339063 2.80005469V398.8c0 1.54694531-1.31260938 2.80005469-2.93339063 2.80005469h-61.6c-1.62060937 0-2.93339062-1.25294531-2.93339062-2.80005469v-39.19994531C481.26660938 358.0529453 482.57939063 356.8 484.2 356.8z" />
                <g>
                    <path fill="rgb(220,233,240)" fill-rule="evenodd"
                        d="M524.78260937 401.60005469h-21.516L540.41739064 356.8H545.8l2.93339063 1.39994531V372.718l-23.95078126 28.88205469z" />
                    <path fill="rgb(220,233,240)" fill-rule="evenodd"
                        d="M493.98260937 401.60005469H483.716L520.86660937 356.8h10.26678125l-37.15078125 44.80005469z" />
                </g>
                <g>
                    <rect width="5.867" height="8.4" x="545.8" y="365.2" fill="rgb(255,235,155)"
                        rx="0" ry="0" />
                    <rect width="5.867" height="8.4" x="545.8" y="384.8" fill="rgb(255,235,155)"
                        rx="0" ry="0" />
                </g>
                <path fill="rgb(220,233,240)" fill-rule="evenodd"
                    d="M481.26660938 389.812l27.38278125-33.012H510.6l-29.33339062 35.364v-2.352z" />
                <ellipse cx="515" cy="379.2" fill="rgb(245,200,114)" rx="13.2" ry="12.6" />
                <ellipse cx="515" cy="379.2" fill="rgb(255,235,155)" rx="7.333" ry="7" />
                <g>
                    <path fill="rgb(141,108,159)" fill-rule="evenodd"
                        d="M475.3999939 347.00006104h79.2000122c2.43029786 0 4.3999939 1.88015747 4.3999939 4.2000122v55.99993897c0 2.31982422-1.96969604 4.2000122-4.3999939 4.2000122h-7.33322143v2.80004883c0 1.54708863-1.31277466 2.80004883-2.93341065 2.80004883h-5.86657714c-1.62078858 0-2.93341065-1.2531128-2.93341065-2.80004883v-2.80004883h-41.06658936v2.80004883c0 1.54708863-1.31280517 2.80004883-2.93341064 2.80004883h-5.86660767c-1.62078857 0-2.93338012-1.2531128-2.93338012-2.80004883v-2.80004883h-7.33340454c-2.43029786 0-4.3999939-1.88018798-4.3999939-4.2000122v-55.99993897c0-2.31985473 1.96969604-4.2000122 4.3999939-4.2000122zm79.19998169 61.59988403c.8095398 0 1.46661377-.62719727 1.46661377-1.39993286v-55.99996949c0-.7727356-.65707398-1.39993286-1.46661377-1.39993286h-79.1999817c-.80953979 0-1.46661376.62719727-1.46661376 1.39993286v55.99996949c0 .7727356.65707397 1.39993286 1.46661377 1.39993286h79.19998169zm-68.93338013 5.60009765h5.86660767v-2.80004882h-5.86660767v2.80004882zm58.66677856 0h-5.86660766v-2.80004882h5.86660766v2.80004882z" />
                    <path fill="rgb(141,108,159)" fill-rule="evenodd"
                        d="M548.73339062 395.99994531c-.80953125 0-1.46660937.62721094-1.46660937 1.39994532v1.3999453c0 .77273438-.65707813 1.39994532-1.46660938 1.39994532H484.2c-.80953125 0-1.46660938-.62721094-1.46660938-1.39994531v-39.19978125c0-.77273438.65707813-1.39994531 1.46660938-1.39994531h61.6c.80953125 0 1.46660937.62721093 1.46660937 1.3999453V361c0 .77273438.65707813 1.39994531 1.46660938 1.39994531C549.54275 362.39994531 550.2 361.77273438 550.2 361v-1.39994531c0-2.31984375-1.9696875-4.2-4.4-4.2h-61.6c-2.4303125 0-4.4 1.88015625-4.4 4.2V398.8c0 2.31984375 1.9696875 4.2 4.4 4.2h61.6c2.4303125 0 4.4-1.88015625 4.4-4.2v-1.39994531c0-.77289844-.65707813-1.40010938-1.46660938-1.40010938z" />
                    <path fill="rgb(141,108,159)" fill-rule="evenodd"
                        d="M550.2 380.60005469V377.8c0-.77273438-.65707812-1.39994531-1.46660937-1.39994531s-1.46660938.62721094-1.46660938 1.39994531v2.80005469c0 .77273437.65707813 1.39994531 1.46660938 1.39994531.80953125 0 1.46660937-.62721094 1.46660937-1.39994531z" />
                    <path fill="rgb(141,108,159)" fill-rule="evenodd"
                        d="M547.26660156 363.80004883h2.93341065c1.62060547 0 2.93338012 1.2529602 2.93338012 2.80004883v5.59994506c0 1.54711915-1.31277465 2.80004883-2.93338012 2.80004883h-2.93341065c-1.62075805 0-2.93338012-1.25308227-2.93338012-2.80004883v-5.59994506c0-1.54708863 1.31277465-2.80004883 2.93338012-2.80004883zm0 8.3999939h2.93338013v-5.59994507h-2.93338013v5.59994506z" />
                    <path fill="rgb(141,108,159)" fill-rule="evenodd"
                        d="M547.26660156 383.39993286h2.93341065c1.62060547 0 2.93338012 1.2531128 2.93338012 2.80004883v5.59994507c0 1.54711914-1.31277465 2.80004883-2.93338012 2.80004883h-2.93341065c-1.62075805 0-2.93338012-1.2531128-2.93338012-2.80004883v-5.59994507c0-1.54708862 1.31277465-2.80004883 2.93338012-2.80004883zm0 8.40002442h2.93338013v-5.59994507h-2.93338013v5.59994507z" />
                    <path fill="rgb(141,108,159)" fill-rule="evenodd"
                        d="M515 393.19989014c-8.10028076 0-14.66659546-6.26766968-14.66659546-13.99993897 0-7.73208618 6.5661316-13.99993896 14.66659546-13.99993896 8.10049438 0 14.66662598 6.26785278 14.66662598 13.99993896 0 7.7321167-6.5663147 13.99993897-14.66662598 13.99993897zm0-2.44995118c6.68215942 0 12.1000061-5.17156982 12.1000061-11.5500183-.00878906-6.37545777-5.42077636-11.54144288-12.1000061-11.5499878-6.68215942 0-12.1000061 5.17156983-12.1000061 11.5499878 0 6.37844848 5.41784668 11.5500183 12.1000061 11.5500183z" />
                    <path fill="rgb(141,108,159)" fill-rule="evenodd"
                        d="M513.53339063 370.79994531v2.562c0 .77273438.65707812 1.39994532 1.46660937 1.39994532s1.46660938-.62721094 1.46660938-1.39994532v-2.562c0-.77273437-.65707813-1.39994531-1.46660938-1.39994531-.80953125 0-1.46660937.62721094-1.46660937 1.39994531z" />
                    <path fill="rgb(141,108,159)" fill-rule="evenodd"
                        d="M485.66660938 368.00005469V390.4c0 .77273438.65707812 1.39994531 1.46660937 1.39994531s1.46660937-.62721093 1.46660937-1.39994531v-22.39994531c0-.77273438-.65707812-1.39994532-1.46660937-1.39994532-.80953125-.00016406-1.46660938.62704688-1.46660938 1.39994532z" />
                    <path fill="rgb(141,108,159)" fill-rule="evenodd"
                        d="M515 383.39994531c-.80953125 0-1.46660937.62721094-1.46660937 1.39994531v2.562c0 .77273438.65707812 1.39994532 1.46660937 1.39994532s1.46660938-.62721094 1.46660938-1.39994532v-2.562c0-.77273437-.65707813-1.3999453-1.46660938-1.3999453z" />
                    <path fill="rgb(141,108,159)" fill-rule="evenodd"
                        d="M510.35060937 379.19994531c0-.77273437-.65707812-1.39994531-1.46660937-1.39994531H506.2c-.80953125 0-1.46660938.62721094-1.46660938 1.39994531 0 .77273438.65707813 1.39994532 1.46660938 1.39994532h2.684c.80953125.00016406 1.46660937-.62704688 1.46660937-1.39994532z" />
                    <path fill="rgb(141,108,159)" fill-rule="evenodd"
                        d="M519.64939063 379.19994531c0 .77273438.65707812 1.39994532 1.46660937 1.39994532h2.684c.80953125 0 1.46660938-.62721094 1.46660938-1.39994532 0-.77273437-.65707813-1.39994531-1.46660938-1.39994531h-2.684c-.80953125 0-1.46660937.62721094-1.46660937 1.39994531z" />
                    <path fill="rgb(141,108,159)" fill-rule="evenodd"
                        d="M509.896 372.20005469c-.61445313-.50252344-1.54154688-.43394532-2.068.15257812-.47076563.52352344-.47076563 1.29773438 0 1.82142188L509.73460937 375.994c.61445313.50252344 1.54154688.43394531 2.068-.15257813.47076563-.52352343.47076563-1.29773437 0-1.82142187L509.896 372.20005469z" />
                    <path fill="rgb(141,108,159)" fill-rule="evenodd"
                        d="M520.104 385.93405469c.61445312.50252344 1.54154687.43394531 2.068-.15257813.47076563-.52352343.47076563-1.29773437 0-1.82142187l-1.90660938-1.81994531c-.61445312-.50252344-1.54154687-.43394532-2.068.15257812-.47076562.52352344-.47076562 1.29773438 0 1.82142188l1.90660938 1.8199453z" />
                    <path fill="rgb(141,108,159)" fill-rule="evenodd"
                        d="M509.73460938 382.294L507.828 384.11394531c-.61445312.50252344-.68646875 1.38747656-.15984375 1.974.52645313.58652344 1.45354688.65526563 2.068.15257813.05723438-.04757813.11154688-.09794532.15984375-.15257813L511.80260938 384.268c.52645312-.58652344.45460937-1.47147656-.15984375-1.974-.54845313-.44936719-1.35953125-.44936719-1.90815625 0z" />
                    <path fill="rgb(141,108,159)" fill-rule="evenodd"
                        d="M519.4 376.40005469c.39015625.00278906.76415625-.14421094 1.04139063-.40605469L522.348 374.17405469c.57045313-.54878906.56753125-1.43636719-.00739062-1.98105469-.57492188-.54452344-1.50476563-.54173437-2.07539063.00705469L518.35860937 374.02c-.56753124.55157813-.55739062 1.43915625.02045313 1.97957813.2729375.25478906.63954687.399 1.0209375.40047656z" />
                </g>
            </g>
        </g>
    </g>
</svg>
