<svg xmlns="http://www.w3.org/2000/svg" xmlns:xlink="http://www.w3.org/1999/xlink" width="348"
    height="483" viewBox="0 0 348 483">
    <defs>
        <rect id="rect-2" width="88" height="84" x="23" y="72" />
        <mask id="mask-3" maskContentUnits="userSpaceOnUse" maskUnits="userSpaceOnUse">
            <rect width="348" height="483" x="0" y="0" fill="black" />
            <use fill="white" xlink:href="#rect-2" />
        </mask>
    </defs>
    <g>
        <ellipse cx="83" cy="409" fill="rgb(68,23,127)" rx="83" ry="17" />
        <g>
            <use fill="none" xlink:href="#rect-2" />
            <g mask="url(#mask-3)">
                <path fill="rgb(194,205,231)" fill-rule="evenodd"
                    d="M28.86660938 80.4h76.26660937c2.4303125 0 4.4 1.88015625 4.4 4.2v53.20005469c0 2.31984375-1.9696875 4.2-4.4 4.2H28.86660938c-2.4303125 0-4.4-1.88015625-4.4-4.2V84.6c0-2.31984375 1.96985937-4.2 4.4-4.2z" />
                <path fill="rgb(172,183,208)" fill-rule="evenodd"
                    d="M28.86660938 111.19994531h76.26660937c2.4303125 0 4.4 1.88015625 4.4 4.2v22.39994532c0 2.31984375-1.9696875 4.2-4.4 4.2H28.86660938c-2.4303125 0-4.4-1.88015625-4.4-4.2V115.3999453c0-2.31967968 1.96985937-4.2 4.4-4.2z" />
                <g>
                    <rect width="8.8" height="5.6" x="36.2" y="142" fill="rgb(156,176,195)" rx="0"
                        ry="0" />
                    <rect width="8.8" height="5.6" x="89" y="142" fill="rgb(156,176,195)" rx="0"
                        ry="0" />
                </g>
                <path fill="rgb(211,224,232)" fill-rule="evenodd"
                    d="M36.2 88.8h61.6c1.62060938 0 2.93339063 1.25294531 2.93339063 2.80005469V130.8c0 1.54694531-1.31260938 2.80005469-2.93339063 2.80005469H36.2c-1.62060937 0-2.93339062-1.25294531-2.93339062-2.80005469V91.60005469C33.26660938 90.0529453 34.57939063 88.8 36.2 88.8z" />
                <g>
                    <path fill="rgb(220,233,240)" fill-rule="evenodd"
                        d="M76.78260938 133.60005469h-21.516L92.41739063 88.8H97.8l2.93339063 1.39994531V104.718l-23.95078125 28.88205469z" />
                    <path fill="rgb(220,233,240)" fill-rule="evenodd"
                        d="M45.98260938 133.60005469H35.716L72.86660937 88.8h10.26678125l-37.15078124 44.80005469z" />
                </g>
                <g>
                    <rect width="5.867" height="8.4" x="97.8" y="97.2" fill="rgb(255,235,155)"
                        rx="0" ry="0" />
                    <rect width="5.867" height="8.4" x="97.8" y="116.8" fill="rgb(255,235,155)"
                        rx="0" ry="0" />
                </g>
                <path fill="rgb(220,233,240)" fill-rule="evenodd"
                    d="M33.26660938 121.812L60.64939063 88.8H62.6l-29.33339062 35.364v-2.352z" />
                <ellipse cx="67" cy="111.2" fill="rgb(245,200,114)" rx="13.2" ry="12.6" />
                <ellipse cx="67" cy="111.2" fill="rgb(255,235,155)" rx="7.333" ry="7" />
                <g>
                    <path fill="rgb(141,108,159)" fill-rule="evenodd"
                        d="M27.4 79.00005507h79.2c2.43031082 0 4.4 1.88015652 4.4 4.20000017v55.99994242c0 2.31984616-1.96968918 4.20000267-4.4 4.20000267h-7.33322144v2.80005741c0 1.54710484-1.31277923 2.80005074-2.93338928 2.80005074h-5.86660652c-1.62078209 0-2.93339348-1.25310612-2.93339348-2.80005074v-2.8000574H46.46678066v2.8000574c0 1.54710484-1.31278133 2.80005074-2.93338928 2.80005074h-5.86660967c-1.62078209 0-2.93339138-1.25310612-2.93339138-2.80005074v-2.8000574H27.4c-2.43031253 0-4.4-1.88015652-4.4-4.20000268V83.20005524c0-2.31984365 1.96968747-4.20000017 4.4-4.20000017zm79.2 61.59989453c.80953293 0 1.46661072-.62721062 1.46661072-1.39994526V83.2000544c0-.77273464-.6570778-1.39994526-1.46661072-1.39994526H27.4c-.80953135 0-1.4666094.62721062-1.4666094 1.39994526v55.99994993c0 .77273464.65707805 1.39994526 1.4666094 1.39994526h79.2zm-68.93339033 5.60010814h5.86660967v-2.8000574h-5.86660967v2.8000574zm58.66677961 0h-5.86660652v-2.8000574h5.86660652v2.8000574z" />
                    <path fill="rgb(141,108,159)" fill-rule="evenodd"
                        d="M100.73339062 127.99994531c-.80953124 0-1.46660937.62721094-1.46660937 1.39994531v1.39994532c0 .77273437-.65707812 1.39994531-1.46660937 1.39994531H36.2c-.80953125 0-1.46660937-.62721094-1.46660937-1.39994531V91.60005469c0-.77273438.65707812-1.39994532 1.46660937-1.39994532h61.6c.80953125 0 1.46660938.62721094 1.46660938 1.39994532V93c0 .77273437.65707812 1.39994531 1.46660937 1.39994531S102.2 93.77273437 102.2 93v-1.39994531c0-2.31984375-1.9696875-4.2-4.4-4.2H36.2c-2.4303125 0-4.4 1.88015625-4.4 4.2V130.8c0 2.31984375 1.9696875 4.2 4.4 4.2h61.6c2.4303125 0 4.4-1.88015625 4.4-4.2v-1.39994531c0-.77289844-.65707812-1.40010938-1.46660938-1.40010938z" />
                    <path fill="rgb(141,108,159)" fill-rule="evenodd"
                        d="M102.2 112.60005469V109.8c0-.77273438-.65707812-1.39994531-1.46660937-1.39994531s-1.46660938.62721093-1.46660938 1.39994531v2.80005469c0 .77273437.65707813 1.39994531 1.46660938 1.39994531.80953125 0 1.46660937-.62721094 1.46660937-1.39994531z" />
                    <path fill="rgb(141,108,159)" fill-rule="evenodd"
                        d="M99.26661072 95.80005407H102.2c1.62061005 0 2.93338928 1.2529459 2.93338928 2.80005408v5.59994793c0 1.54710817-1.31277923 2.80005073-2.93338928 2.80005073h-2.93338928c-1.6207779 0-2.93338928-1.25310612-2.93338928-2.80005073v-5.59994793c0-1.54710818 1.31277923-2.80005408 2.93338928-2.80005408zm0 8.400002H102.2v-5.59994625h-2.93338928v5.59994626z" />
                    <path fill="rgb(141,108,159)" fill-rule="evenodd"
                        d="M99.26661072 115.39994526H102.2c1.62061005 0 2.93338928 1.25310945 2.93338928 2.80005407v5.5999446c0 1.5471115-1.31277923 2.8000574-2.93338928 2.8000574h-2.93338928c-1.6207779 0-2.93338928-1.25311279-2.93338928-2.8000574v-5.5999446c0-1.54710817 1.31277923-2.80005407 2.93338928-2.80005407zm0 8.39999866H102.2v-5.59994459h-2.93338928v5.5999446z" />
                    <path fill="rgb(141,108,159)" fill-rule="evenodd"
                        d="M67 125.19988918c-8.10029755 0-14.66660862-6.26768017-14.66660862-13.9999466 0-7.73209952 6.56613903-13.99994325 14.66660862-13.99994325s14.66661072 6.26784373 14.66661072 13.99994326c0 7.73210287-6.56631317 13.9999466-14.66661072 13.9999466zm0-2.44994259c6.68215675 0 12.1-5.17158031 12.1-11.55000066-.0087658-6.37546969-5.42076797-11.5414691-12.1-11.55000067-6.68215675 0-12.1 5.17157698-12.1 11.55000067 0 6.37842035 5.41784325 11.55000066 12.1 11.55000066z" />
                    <path fill="rgb(141,108,159)" fill-rule="evenodd"
                        d="M65.53339063 102.79994531v2.562c0 .77273438.65707812 1.39994532 1.46660937 1.39994532s1.46660938-.62721094 1.46660938-1.39994532v-2.562C68.46660938 102.02721094 67.80953125 101.4 67 101.4c-.80953125 0-1.46660937.62721094-1.46660937 1.39994531z" />
                    <path fill="rgb(141,108,159)" fill-rule="evenodd"
                        d="M37.66660938 100.00005469V122.4c0 .77273437.65707812 1.39994531 1.46660937 1.39994531s1.46660937-.62721094 1.46660937-1.39994531v-22.39994531c0-.77273438-.65707812-1.39994532-1.46660937-1.39994532-.80953125-.00016406-1.46660937.62704688-1.46660937 1.39994532z" />
                    <path fill="rgb(141,108,159)" fill-rule="evenodd"
                        d="M67 115.39994531c-.80953125 0-1.46660937.62721094-1.46660937 1.39994531v2.562c0 .77273438.65707812 1.39994532 1.46660937 1.39994532s1.46660938-.62721094 1.46660938-1.39994532v-2.562c0-.77273437-.65707813-1.3999453-1.46660938-1.3999453z" />
                    <path fill="rgb(141,108,159)" fill-rule="evenodd"
                        d="M62.35060937 111.19994531c0-.77273437-.65707812-1.39994531-1.46660937-1.39994531H58.2c-.80953125 0-1.46660938.62721094-1.46660938 1.39994531 0 .77273438.65707813 1.39994532 1.46660938 1.39994532h2.684c.80953125.00016406 1.46660937-.62704688 1.46660937-1.39994532z" />
                    <path fill="rgb(141,108,159)" fill-rule="evenodd"
                        d="M71.64939063 111.19994531c0 .77273438.65707812 1.39994532 1.46660937 1.39994532H75.8c.80953125 0 1.46660938-.62721094 1.46660938-1.39994532C77.26660938 110.42721094 76.60953125 109.8 75.8 109.8h-2.684c-.80953125 0-1.46660937.62721094-1.46660937 1.39994531z" />
                    <path fill="rgb(141,108,159)" fill-rule="evenodd"
                        d="M61.896 104.20005469c-.61445312-.50252344-1.54154687-.43394532-2.068.15257812-.47076562.52352344-.47076562 1.29773438 0 1.82142188L61.73460938 107.994c.61445312.50252344 1.54154687.43394531 2.068-.15257813.47076562-.52352343.47076562-1.29773437 0-1.82142187L61.896 104.20005469z" />
                    <path fill="rgb(141,108,159)" fill-rule="evenodd"
                        d="M72.104 117.93405469c.61445313.50252344 1.54154688.43394531 2.068-.15257813.47076563-.52352343.47076563-1.29773437 0-1.82142187l-1.90660937-1.81994531c-.61445313-.50252344-1.54154688-.43394532-2.068.15257812-.47076563.52352344-.47076563 1.29773438 0 1.82142188L72.104 117.93405468z" />
                    <path fill="rgb(141,108,159)" fill-rule="evenodd"
                        d="M61.73460938 114.294L59.828 116.11394531c-.61445312.50252344-.68646875 1.38747656-.15984375 1.974.52645313.58652344 1.45354688.65526563 2.068.15257813.05723438-.04757813.11154688-.09794532.15984375-.15257813L63.80260938 116.268c.52645312-.58652344.45460937-1.47147656-.15984375-1.974-.54845313-.44936719-1.35953125-.44936719-1.90815625 0z" />
                    <path fill="rgb(141,108,159)" fill-rule="evenodd"
                        d="M71.4 108.40005469c.39015625.00278906.76415625-.14421094 1.04139063-.40605469L74.348 106.17405469c.57045313-.54878906.56753125-1.43636719-.00739062-1.98105469-.57492188-.54452344-1.50476563-.54173437-2.07539063.00705469L70.35860938 106.02c-.56753125.55157813-.55739063 1.43915625.02045312 1.97957812.2729375.25478907.63954688.399 1.0209375.40047657z" />
                </g>
            </g>
        </g>
        <g transform="matrix(-1 0 0 1 348 244)">
            <g transform="translate(65 42)">
                <path fill="rgb(197,207,214)" fill-rule="evenodd"
                    d="M27.6226415 0h77.25455148L115 124H0L27.6226415 0z" />
                <path fill="rgb(0,0,0)" fill-opacity=".1" fill-rule="evenodd"
                    d="M27.6226415 0h23.7601596l14.22097248 124H0L27.6226415 0z" />
            </g>
            <path fill="rgb(178,139,103)" fill-rule="evenodd"
                d="M212.32341003 66.56646729c-8.68144226 18.41159439-22.24684143 63.1057167-22.24684143 63.1057167l11.51657105 5.26159668s29.22111511-46.98135376 47.0792694-79.09739304c-.83213805 7.22999955-1.67939758 15.36973572-2.464859 23.92626572-1.8607483 20.27046204-.00100708 64.06414795 1 76.71472168.62910461 7.95050049 11.43222046 6.28494263 12.44067383-.0206604C260.65667725 150.1511116 279.97161865 50.40290833 280 29.23841476c.00949097-7.07369613-13.80987549-13.42826175-22.0466919-8.48229408-5.6578369-6.03693008-16.36566162-9.5164051-22.51725768.45588875-3.91073609 6.33966255-13.20281983 24.3377037-23.11264039 45.35445786z" />
            <path fill="rgb(31,40,207)" fill-rule="evenodd"
                d="M190.89992237 113.12535469l39.52746167-93.63805378c9.46932164-15.23246624 36.01877245 3.09968393 32.78952956 11.93441739-7.33138107 20.05757995-44.61720191 84.99251957-46.80146526 90.96834273l-25.51552597-9.26470634z" />
            <path fill="rgb(228,228,228)" fill-rule="evenodd"
                d="M191.60246668 124.22829544c-.634995-.98375116-1.9755046-1.21403046-2.90239546-.4985877 0 0-3.44819015 2.66156756-4.80065525 5.0041048-1.35246509 2.34253726-3.16666695 7.28731033-3.16666695 7.28731033l48.8453969 28.20091525s5.53809882-5.19521632 1.72571658-8.06548977c-3.81238224-2.87027346-6.29217702-4.84124634-6.29217702-4.84124634l-16.85947672-23.22856875c-.33093094-.45594844-.97300847-.54865139-1.41939522-.20493182l-3.50311877 2.69741531s-4.82048726-.42066754-7.19472521-1.79143505c-2.37423796-1.37076752-4.43250288-4.55948626-4.43250288-4.55948626z" />
            <path fill="rgb(255,255,255)" fill-rule="evenodd"
                d="M247.4182776 150.35225237c-1.0417975-.5344558-2.31785241-.06362848-2.76284187 1.01940863 0 0-1.65543573 4.02908051-1.65543573 6.73400982C243 160.81060014 243.90124261 166 243.90124261 166h56.4018122s2.19852474-7.26823912-2.53823196-7.84777684c-4.7367567-.57953773-7.8698085-1.04655234-7.8698085-1.04655234l-26.2150217-11.68678736c-.51456887-.22939737-1.11697575.0113584-1.33169813.5322217l-1.68508143 4.08758988s-4.38499781 2.04593567-7.12653195 2.04593567c-2.74153414 0-6.11840355-1.73237834-6.11840355-1.73237834z" />
            <path fill="rgb(43,68,255)" fill-rule="evenodd"
                d="M282.77037312 36.4330278c0 26.5669722-12.6167735 88.53726557-12.62475727 94.38708375L243 130.84096261s5.95991587-82.94322234 4.22668288-83.8367647c-1.73323298-.89354235-71.05084528 6.92083266-91.84032504 6.92083266C125.40782515 53.92503057 113.00630654 35.02039713 112 0h59.38635784c12.09159567 1.29386693 75.16246762 14.01525676 98.58573876 18.38841285C280 20.26063585 282.77037312 29.1145109 282.77037312 36.4330278z" />
        </g>
        <g transform="matrix(-1 0 0 1 316 107)">
            <path fill="rgb(153,118,89)" fill-rule="evenodd"
                d="M193.34780884 23.6898241L158.638031 42.70023441l12.81774902 13.75740815 25.22088623-23.0924263q18.70394897-5.1546898 18.35531616-7.71191407-.0228424-.16753769-.12745666-.32392883c-.95643616-1.42969513-2.49897766-1.38005066-3.91983033-1.33432388-1.1068573.03562164-2.1398468.06886673-2.76438903-.60145188-1.42623902-1.53080272 1.2949829-6.883214 4.09449768-11.85208988 2.79951477-4.96887207-.1940155-4.53630829-1.90583802-3.82165527q-8.40310669 5.68852329-17.06115722 15.96997165zM228.246521 50.36420536L213 58.7398386l.8682251 15.3003769s9.87471008-7.1271286 18.3701477-9.4958725c10.8321991-3.02027894 15.2147522-5.32670975 20.5079956-12.07125092 2.83212281-3.60863876 5.23580933-10.86296463 2.54006959-13.22549057-1.03405762-.90624237-4.88705445 1.23478317-8.81834412 3.41932678-2.99613952 1.6648941-6.0377655 3.3550644-7.91171264 3.74085617-2.52261353.5193367-2.22727967-2.75038528-1.99128724-5.36323547.1693573-1.87492752.30815125-3.41161728-.64674377-2.96731568-4.46287537.07653046-7.67182922 12.28697205-7.67182922 12.28697205z" />
            <path fill="rgb(39,18,123)" fill-rule="evenodd"
                d="M141.73409105 38.46537743c12.15759963-.12843578 28.36980357-2.69619756 45.6683336-13.67663874l6.7934947 15.14994146C182.2638172 51.78031158 165.48616733 61.5096598 150.8160859 61.0976751c-11.56083273-.32466666-17.46938968-14.30849715-9.08199485-22.63229767z" />
            <path fill="rgb(20,2,93)" fill-rule="evenodd"
                d="M108.9445877 142.2585144c-11.55793761-1.50689697-22.1782379-2.89154052-28.47180175-1.65254211-7.06144714-22.93295288-1.19785309-37.37205505 4.21507263-50.70137787 3.26237488-8.03359222 6.36103821-15.66405487 6.36766052-24.50798035C91.07479858 39.64215851 111.7544098 0 114.79699707 0h27.74674988c1.24049377 15.93736553 6.53501892 33.19304657 11.86357117 50.55961227 1.24438476 4.055645 2.49061584 8.1173401 3.68751525 12.16970444 20.16494751 4.57720947 64.9411087-11.355896 64.9411087-11.355896s11.30358887 23.3851471 10.45074464 33.34363556c-26.06240845 13.61399079-48.40015412 19.68378449-66.80345917 20.08448029.5848236 10.91983032-.74430847 21.31031036-5.20928955 30.80443573-5.9826355 12.72116089-30.89811707 9.4727478-52.52935028 6.65254211z" />
        </g>
        <g transform="matrix(-1 0 0 1 256 7)">
            <path fill="rgb(178,139,103)" fill-rule="evenodd"
                d="M92.14334106 40.13393307c5.79481125 10.8011217 5.1062355 38.1990633-2.38304138 40.12952518-2.9867134.76986695-9.34929657-1.1159935-15.82492256-5.01914596L78 104H54l8.26227379-38.50987244c-4.60790944-5.40875053-7.72663903-12.03725052-7.2054975-19.464674 1.50155377-21.40047406 31.29175353-16.69264244 37.08656477-5.8915205z" />
            <path fill="rgb(46,33,97)" fill-rule="evenodd"
                d="M78.46395003 27.68525676c-3.16313052-.51871894-11.67999893-.8753526-13.2506616-.87512237-1.00372758 0-2.09146254.22931383-2.68594103-.69231595-.48682968-.75470958-.30848614-2.03113115-.4537776-2.90694422-.16870335-1.01740745-.40833098-2.02169152-.65071294-3.02344301-.68973276-2.8505367-1.7327097-5.56247207-3.1920511-8.1086384-2.7382735-4.77691102-6.7497409-8.51868652-11.81405495-10.69601675-5.59245884-2.40411148-11.92078565-2.95460281-17.93626528-2.46696557-6.43735279.521712-12.26461915 2.64677893-18.3425305 4.64659815-5.791919 1.9056532-11.85835393 2.65575808-17.91606678 1.72514913-6.103389-.93751598-10.7150731-4.24552917-15.863165-7.38524074-5.270201-3.21430764-11.29302555-5.31658133-17.52334374-4.83331855-5.81578995.45126015-11.17596607 2.85260882-15.98504457 6.06046988-4.49944472 3.00134047-8.21206618 6.61234262-10.30811929 11.69454495-2.25488675 5.46692463-2.252821 11.4677637 1.4552099 16.29924037 5.3746364 7.00328126 15.35246436 8.81430797 23.65358755 8.63426438 4.80150406-.10383588 9.5171645-.98033966 14.0503499-2.57471544 6.04554785-2.12644835 11.26984318-5.73054345 16.92565185-8.65475528 2.65426612-1.37219923 5.39781877-2.49919844 8.27357978-3.31100624 2.79060597-.78809362 5.53920825-1.1495622 8.0658566.53621678 2.67285791 1.78339854 5.0679865 3.53525491 8.1257635 4.65166332 2.93337263 1.07105215 6.04049823 1.67012302 9.16575657 1.64594837 6.0806657-.0469679 12.07479919-1.94156982 17.98056426-3.21062388 4.81596435-1.03467506 9.96887635-2.0658966 14.8787178-1.07128239 2.04877027.4151133 5.04136122 1.27204711 5.7813607 3.40125827-12.45443912 2.2572217-17.34590686 17.65992787-13.83481132 28.9669877 1.89498626 6.10283307 13.28600897 13.2369804 17.71498848 10.0286289 2.80588595-2.03258299 1.10242478-4.7009963 0-6.46252253-2.11120199-3.37339986-2.83352778-7.70664849 1.07304515-10.05527339 3.36970606-2.0256055 6.91271984 2.78467002 6.97974212 2.77937462.926147-.07298442 8.92886177-4.5988712 14.44258658-11.20328786 5.43931001.32243658 6.26453207-3.26410448 4.96573136-6.19722101-1.2988007-2.93311654-9.40549662-6.62446993-13.7759464-7.34165124z" />
        </g>
    </g>
</svg>
