<svg xmlns="http://www.w3.org/2000/svg" viewBox="0 0 500 500">
    <defs>
        <clipPath id="clip-path--inject-1">
            <circle cx="257.18" cy="250.54" r="113.09"
                transform="translate(-101.83 255.23) rotate(-45)" style="fill:none"></circle>
        </clipPath>
    </defs><!--05-Safe-->
    <g id="background-complete--inject-1">
        <rect y="382.4" width="500" height="0.25" style="fill:#ebebeb"></rect>
        <rect x="52.46" y="391.92" width="33.12" height="0.25" style="fill:#ebebeb"></rect>
        <rect x="171.14" y="389.21" width="46.86" height="0.25" style="fill:#ebebeb"></rect>
        <rect x="119.33" y="401.21" width="32.75" height="0.25" style="fill:#ebebeb"></rect>
        <rect x="442.01" y="399.53" width="7.89" height="0.25" style="fill:#ebebeb"></rect>
        <rect x="391.47" y="399.53" width="41.64" height="0.25" style="fill:#ebebeb"></rect>
        <rect x="277.21" y="395.31" width="43.12" height="0.25" style="fill:#ebebeb"></rect>
        <path
            d="M237,337.8H43.91a5.71,5.71,0,0,1-5.7-5.71V60.66A5.71,5.71,0,0,1,43.91,55H237a5.71,5.71,0,0,1,5.71,5.71V332.09A5.71,5.71,0,0,1,237,337.8ZM43.91,55.2a5.46,5.46,0,0,0-5.45,5.46V332.09a5.46,5.46,0,0,0,5.45,5.46H237a5.47,5.47,0,0,0,5.46-5.46V60.66A5.47,5.47,0,0,0,237,55.2Z"
            style="fill:#ebebeb"></path>
        <path
            d="M453.31,337.8H260.21a5.72,5.72,0,0,1-5.71-5.71V60.66A5.72,5.72,0,0,1,260.21,55h193.1A5.71,5.71,0,0,1,459,60.66V332.09A5.71,5.71,0,0,1,453.31,337.8ZM260.21,55.2a5.47,5.47,0,0,0-5.46,5.46V332.09a5.47,5.47,0,0,0,5.46,5.46h193.1a5.47,5.47,0,0,0,5.46-5.46V60.66a5.47,5.47,0,0,0-5.46-5.46Z"
            style="fill:#ebebeb"></path>
        <rect x="383.5" y="91.41" width="54.06" height="62.2"
            transform="translate(821.05 245.01) rotate(180)" style="fill:#ebebeb"></rect>
        <path
            d="M389.38,95.37a.33.33,0,0,0,.16-.05c.15-.09,15.26-9.08,20.07-9.08s19.22,9,19.37,9.08a.31.31,0,0,0,.43-.1.32.32,0,0,0-.1-.43c-.6-.38-14.72-9.17-19.7-9.17s-19.77,8.79-20.39,9.17a.31.31,0,0,0-.11.43A.33.33,0,0,0,389.38,95.37Z"
            style="fill:#ebebeb"></path>
        <rect x="377.36" y="91.41" width="58.51" height="62.2"
            transform="translate(813.23 245.01) rotate(180)" style="fill:#f5f5f5"></rect>
        <rect x="380.42" y="98.15" width="52.39" height="48.7"
            transform="translate(529.12 -284.11) rotate(90)" style="fill:#fff"></rect>
        <path d="M403.77,131.32a6,6,0,1,0-6,6A6,6,0,0,0,403.77,131.32Z" style="fill:#f5f5f5"></path>
        <path d="M421.39,113.69a6,6,0,1,0-6,6A6,6,0,0,0,421.39,113.69Z" style="fill:#f5f5f5"></path>
        <rect x="306.03" y="142.4" width="54.06" height="62.2"
            transform="translate(666.12 346.99) rotate(180)" style="fill:#ebebeb"></rect>
        <path
            d="M311.91,146.36a.32.32,0,0,0,.16,0c.15-.09,15.26-9.08,20.07-9.08s19.22,9,19.37,9.07a.31.31,0,0,0,.43-.1.32.32,0,0,0-.1-.43c-.6-.37-14.72-9.17-19.7-9.17s-19.77,8.79-20.39,9.17a.31.31,0,0,0-.11.43A.31.31,0,0,0,311.91,146.36Z"
            style="fill:#ebebeb"></path>
        <rect x="299.89" y="142.4" width="58.51" height="62.2"
            transform="translate(658.29 346.99) rotate(180)" style="fill:#f5f5f5"></rect>
        <rect x="302.95" y="149.15" width="52.39" height="48.7"
            transform="translate(502.64 -155.65) rotate(90)" style="fill:#fff"></rect>
        <path d="M324.52,184.08a6,6,0,1,0-6,6A6,6,0,0,0,324.52,184.08Z" style="fill:#f5f5f5"></path>
        <path d="M345.69,162.91a6,6,0,1,0-6,6A6,6,0,0,0,345.69,162.91Z" style="fill:#f5f5f5"></path>
        <path d="M333.77,184.08a6,6,0,1,1,6,6A6,6,0,0,1,333.77,184.08Z" style="fill:#f5f5f5"></path>
        <path d="M312.59,162.91a6,6,0,1,1,6,6A6,6,0,0,1,312.59,162.91Z" style="fill:#f5f5f5"></path>
        <rect x="77.97" y="79.28" width="194.82" height="165.74"
            transform="translate(350.76 324.3) rotate(180)" style="fill:#e6e6e6"></rect>
        <rect x="75.17" y="79.28" width="194.82" height="165.74"
            transform="translate(345.16 324.3) rotate(180)" style="fill:#f5f5f5"></rect>
        <rect x="95.35" y="69.76" width="154.46" height="184.77"
            transform="translate(334.73 -10.43) rotate(90)" style="fill:#fff"></rect>
        <rect x="4.03" y="161.09" width="154.46" height="2.12"
            transform="translate(243.4 80.89) rotate(90)" style="fill:#e6e6e6"></rect>
        <rect x="77.25" y="214.7" width="190.66" height="7.58"
            transform="translate(345.16 436.98) rotate(180)" style="fill:#f5f5f5"></rect>
        <path
            d="M69.7,69.94H278.26a.77.77,0,0,1,.78.77h0a.77.77,0,0,1-.78.77H69.7a.77.77,0,0,1-.78-.77h0A.77.77,0,0,1,69.7,69.94Z"
            style="fill:#e6e6e6"></path>
        <path d="M65.06,70.71a3.87,3.87,0,1,0,3.86-3.87A3.86,3.86,0,0,0,65.06,70.71Z"
            style="fill:#e6e6e6"></path>
        <path
            d="M271.74,75h0a1,1,0,0,0,1.05-1V71.75a1,1,0,0,0-1.05-1h0a1,1,0,0,0-1,1V74A1,1,0,0,0,271.74,75Z"
            style="fill:#e6e6e6"></path>
        <path
            d="M81.36,75h0a1,1,0,0,0,1-1V71.75a1,1,0,0,0-1-1h0a1,1,0,0,0-1,1V74A1,1,0,0,0,81.36,75Z"
            style="fill:#e6e6e6"></path>
        <rect x="69.94" y="70.71" width="197.97" height="127.11"
            transform="translate(337.85 268.53) rotate(180)"
            style="fill:#e0e0e0;opacity:0.4"></rect>
        <path d="M255.44,70.71a3.87,3.87,0,1,0,3.87-3.87A3.87,3.87,0,0,0,255.44,70.71Z"
            style="fill:#e6e6e6"></path>
        <path
            d="M374.25,272.47l-.72,0a2.9,2.9,0,0,0,.06-.41c0-3-3.67-5.45-8.21-5.46a4.75,4.75,0,0,0,.44-1.94c0-3-2.89-5.47-6.47-5.47a7.39,7.39,0,0,0-2.84.58,5.41,5.41,0,0,0,.07-.58c0-3.9-3.74-7.07-8.36-7.07-3.88,0-7.1,2.24-8.06,5.26a12.77,12.77,0,0,0-9.43-3.92,12.43,12.43,0,0,0-10.4,5.14,6.94,6.94,0,0,0-4.94-2c-3.57,0-6.46,2.44-6.46,5.46a4.56,4.56,0,0,0,.44,1.94c-4.54,0-8.22,2.45-8.22,5.47a4,4,0,0,0,.13.83l-.79,0c-6,0-10.84,2-10.84,4.57s4.85,4.56,10.84,4.56a21.88,21.88,0,0,0,6.53-.92c2.46,3.49,10.13,6,19.21,6,10.48,0,19.08-3.39,20-7.71a27,27,0,0,0,9.38,1.52,29.36,29.36,0,0,0,7.83-1h.05c.42,2.36,5.09,4.22,10.8,4.22,6,0,10.85-2.05,10.85-4.57S380.24,272.47,374.25,272.47Z"
            style="fill:#e6e6e6"></path>
        <path
            d="M389.74,275.23a8.33,8.33,0,0,1,8.33,8.33h0c0,9.22-22.86,16.77-50.8,16.77H322.05c-27.94,0-50.8-7.55-50.8-16.77h0a8.33,8.33,0,0,1,8.33-8.33Z"
            style="fill:#f0f0f0"></path>
        <rect x="157.9" y="300.33" width="44.2" height="82.07"
            transform="translate(360.01 682.73) rotate(180)" style="fill:#e6e6e6"></rect>
        <polygon points="166.3 382.4 157.9 382.4 157.9 374.73 175.1 374.73 166.3 382.4"
            style="fill:#f0f0f0"></polygon>
        <rect x="397.68" y="300.33" width="44.2" height="82.07"
            transform="translate(839.56 682.73) rotate(180)" style="fill:#e6e6e6"></rect>
        <rect x="157.9" y="300.33" width="247.1" height="78.67"
            transform="translate(562.91 679.34) rotate(180)" style="fill:#f0f0f0"></rect>
        <polygon points="396.61 382.4 405 382.4 405 374.73 387.81 374.73 396.61 382.4"
            style="fill:#f0f0f0"></polygon>
        <path d="M398,307.46v30H165v-30H398m.53-.53H164.42V338H398.49V306.93Z"
            style="fill:#fafafa"></path>
        <path d="M398,341.85v30H165v-30H398m.53-.53H164.42v31.09H398.49V341.32Z"
            style="fill:#fafafa"></path>
        <path d="M259.9,310H303a3.1,3.1,0,0,0,3.1-3.11H256.8A3.1,3.1,0,0,0,259.9,310Z"
            style="fill:#fafafa"></path>
        <path d="M259.9,344.42H303a3.1,3.1,0,0,0,3.1-3.1H256.8A3.1,3.1,0,0,0,259.9,344.42Z"
            style="fill:#fafafa"></path>
    </g>
    <g id="Shadow--inject-1">
        <ellipse id="path--inject-1" cx="250" cy="416.24" rx="193.89" ry="11.32"
            style="fill:#f5f5f5"></ellipse>
    </g>
    <g id="Safe--inject-1">
        <path
            d="M131.91,186.65l-.89-.46a142.15,142.15,0,0,1,30.8-40.29l.68.74A141.17,141.17,0,0,0,131.91,186.65Z"
            style="fill:#9575CD"></path>
        <path
            d="M119.39,222.35l-1-.2a141.67,141.67,0,0,1,5.94-20.79l.94.35A139.64,139.64,0,0,0,119.39,222.35Z"
            style="fill:#9575CD"></path>
        <circle cx="257.18" cy="250.54" r="138.13" transform="translate(-101.83 255.23) rotate(-45)"
            style="fill:#9575CD"></circle>
        <path
            d="M257.18,381.56c72.24,0,131-58.78,131-131s-58.78-131-131-131-131,58.77-131,131S184.93,381.56,257.18,381.56Zm0-261a130.17,130.17,0,0,1,130,130c0,71.69-58.33,130-130,130s-130-58.33-130-130S185.48,120.52,257.18,120.52Z"
            style="fill:#fafafa;opacity:0.4"></path>
        <circle cx="257.01" cy="250.43" r="113.09" transform="translate(-101.8 255.08) rotate(-45)"
            style="fill:#fafafa;opacity:0.9"></circle>
        <g style="clip-path:url(#clip-path--inject-1)">
            <g style="opacity:0.4">
                <polygon
                    points="176.99 313.68 150.4 313.68 155.54 301.06 171.85 301.06 176.99 313.68"
                    style="fill:#9575CD"></polygon>
                <polygon
                    points="176.99 313.68 150.4 313.68 155.54 301.06 171.85 301.06 176.99 313.68"
                    style="fill:#fafafa;opacity:0.2"></polygon>
                <polygon
                    points="217.4 313.68 176.99 313.68 171.85 301.06 212.26 301.06 217.4 313.68"
                    style="fill:#9575CD"></polygon>
                <polygon
                    points="217.4 313.68 176.99 313.68 171.85 301.06 212.26 301.06 217.4 313.68"
                    style="opacity:0.30000000000000004"></polygon>
                <polygon
                    points="210.93 313.68 184.33 313.68 189.47 301.06 205.79 301.06 210.93 313.68"
                    style="fill:#9575CD"></polygon>
                <polygon
                    points="210.93 313.68 184.33 313.68 189.47 301.06 205.79 301.06 210.93 313.68"
                    style="fill:#fafafa;opacity:0.2"></polygon>
                <polygon
                    points="251.33 313.68 210.93 313.68 205.79 301.06 246.19 301.06 251.33 313.68"
                    style="fill:#9575CD"></polygon>
                <polygon
                    points="251.33 313.68 210.93 313.68 205.79 301.06 246.19 301.06 251.33 313.68"
                    style="opacity:0.30000000000000004"></polygon>
                <polygon
                    points="244.86 313.68 218.27 313.68 223.41 301.06 239.72 301.06 244.86 313.68"
                    style="fill:#9575CD"></polygon>
                <polygon
                    points="244.86 313.68 218.27 313.68 223.41 301.06 239.72 301.06 244.86 313.68"
                    style="fill:#fafafa;opacity:0.2"></polygon>
                <polygon
                    points="285.26 313.68 244.86 313.68 239.72 301.06 280.13 301.06 285.26 313.68"
                    style="fill:#9575CD"></polygon>
                <polygon
                    points="285.26 313.68 244.86 313.68 239.72 301.06 280.13 301.06 285.26 313.68"
                    style="opacity:0.30000000000000004"></polygon>
                <polygon
                    points="278.79 313.68 252.2 313.68 257.34 301.06 273.65 301.06 278.79 313.68"
                    style="fill:#9575CD"></polygon>
                <polygon
                    points="278.79 313.68 252.2 313.68 257.34 301.06 273.65 301.06 278.79 313.68"
                    style="fill:#fafafa;opacity:0.2"></polygon>
                <polygon
                    points="319.2 313.68 278.79 313.68 273.65 301.06 314.06 301.06 319.2 313.68"
                    style="fill:#9575CD"></polygon>
                <polygon
                    points="319.2 313.68 278.79 313.68 273.65 301.06 314.06 301.06 319.2 313.68"
                    style="opacity:0.30000000000000004"></polygon>
                <polygon
                    points="312.73 313.68 286.13 313.68 291.27 301.06 307.59 301.06 312.73 313.68"
                    style="fill:#9575CD"></polygon>
                <polygon
                    points="312.73 313.68 286.13 313.68 291.27 301.06 307.59 301.06 312.73 313.68"
                    style="fill:#fafafa;opacity:0.2"></polygon>
                <polygon
                    points="353.13 313.68 312.73 313.68 307.59 301.06 347.99 301.06 353.13 313.68"
                    style="fill:#9575CD"></polygon>
                <polygon
                    points="353.13 313.68 312.73 313.68 307.59 301.06 347.99 301.06 353.13 313.68"
                    style="opacity:0.30000000000000004"></polygon>
                <polygon
                    points="346.66 313.68 320.07 313.68 325.21 301.06 341.52 301.06 346.66 313.68"
                    style="fill:#9575CD"></polygon>
                <polygon
                    points="346.66 313.68 320.07 313.68 325.21 301.06 341.52 301.06 346.66 313.68"
                    style="fill:#fafafa;opacity:0.2"></polygon>
                <polygon
                    points="387.06 313.68 346.66 313.68 341.52 301.06 381.93 301.06 387.06 313.68"
                    style="fill:#9575CD"></polygon>
                <polygon
                    points="387.06 313.68 346.66 313.68 341.52 301.06 381.93 301.06 387.06 313.68"
                    style="opacity:0.30000000000000004"></polygon>
                <polygon points="380.59 313.68 354 313.68 359.14 301.06 375.45 301.06 380.59 313.68"
                    style="fill:#9575CD"></polygon>
                <polygon points="380.59 313.68 354 313.68 359.14 301.06 375.45 301.06 380.59 313.68"
                    style="fill:#fafafa;opacity:0.2"></polygon>
                <polygon points="421 313.68 380.59 313.68 375.45 301.06 415.86 301.06 421 313.68"
                    style="fill:#9575CD"></polygon>
                <polygon points="421 313.68 380.59 313.68 375.45 301.06 415.86 301.06 421 313.68"
                    style="opacity:0.30000000000000004"></polygon>
                <polygon
                    points="414.53 313.68 387.94 313.68 393.07 301.06 409.39 301.06 414.53 313.68"
                    style="fill:#9575CD"></polygon>
                <polygon
                    points="414.53 313.68 387.94 313.68 393.07 301.06 409.39 301.06 414.53 313.68"
                    style="fill:#fafafa;opacity:0.2"></polygon>
                <polygon
                    points="454.93 313.68 414.53 313.68 409.39 301.06 449.79 301.06 454.93 313.68"
                    style="fill:#9575CD"></polygon>
                <polygon
                    points="454.93 313.68 414.53 313.68 409.39 301.06 449.79 301.06 454.93 313.68"
                    style="opacity:0.30000000000000004"></polygon>
                <polygon
                    points="187.36 301.06 160.76 301.06 165.9 288.43 182.22 288.43 187.36 301.06"
                    style="fill:#9575CD"></polygon>
                <polygon
                    points="187.36 301.06 160.76 301.06 165.9 288.43 182.22 288.43 187.36 301.06"
                    style="fill:#fafafa;opacity:0.2"></polygon>
                <polygon
                    points="227.76 301.06 187.36 301.06 182.22 288.43 222.62 288.43 227.76 301.06"
                    style="fill:#9575CD"></polygon>
                <polygon
                    points="227.76 301.06 187.36 301.06 182.22 288.43 222.62 288.43 227.76 301.06"
                    style="opacity:0.30000000000000004"></polygon>
                <polygon
                    points="221.29 301.06 194.7 301.06 199.84 288.43 216.15 288.43 221.29 301.06"
                    style="fill:#9575CD"></polygon>
                <polygon
                    points="221.29 301.06 194.7 301.06 199.84 288.43 216.15 288.43 221.29 301.06"
                    style="fill:#fafafa;opacity:0.2"></polygon>
                <polygon
                    points="261.69 301.06 221.29 301.06 216.15 288.43 256.56 288.43 261.69 301.06"
                    style="fill:#9575CD"></polygon>
                <polygon
                    points="261.69 301.06 221.29 301.06 216.15 288.43 256.56 288.43 261.69 301.06"
                    style="opacity:0.30000000000000004"></polygon>
                <polygon
                    points="255.22 301.06 228.63 301.06 233.77 288.43 250.08 288.43 255.22 301.06"
                    style="fill:#9575CD"></polygon>
                <polygon
                    points="255.22 301.06 228.63 301.06 233.77 288.43 250.08 288.43 255.22 301.06"
                    style="fill:#fafafa;opacity:0.2"></polygon>
                <polygon
                    points="295.63 301.06 255.22 301.06 250.08 288.43 290.49 288.43 295.63 301.06"
                    style="fill:#9575CD"></polygon>
                <polygon
                    points="295.63 301.06 255.22 301.06 250.08 288.43 290.49 288.43 295.63 301.06"
                    style="opacity:0.30000000000000004"></polygon>
                <polygon
                    points="289.16 301.06 262.56 301.06 267.7 288.43 284.02 288.43 289.16 301.06"
                    style="fill:#9575CD"></polygon>
                <polygon
                    points="289.16 301.06 262.56 301.06 267.7 288.43 284.02 288.43 289.16 301.06"
                    style="fill:#fafafa;opacity:0.2"></polygon>
                <polygon
                    points="329.56 301.06 289.16 301.06 284.02 288.43 324.42 288.43 329.56 301.06"
                    style="fill:#9575CD"></polygon>
                <polygon
                    points="329.56 301.06 289.16 301.06 284.02 288.43 324.42 288.43 329.56 301.06"
                    style="opacity:0.30000000000000004"></polygon>
                <polygon
                    points="323.09 301.06 296.5 301.06 301.64 288.43 317.95 288.43 323.09 301.06"
                    style="fill:#9575CD"></polygon>
                <polygon
                    points="323.09 301.06 296.5 301.06 301.64 288.43 317.95 288.43 323.09 301.06"
                    style="fill:#fafafa;opacity:0.2"></polygon>
                <polygon
                    points="363.5 301.06 323.09 301.06 317.95 288.43 358.36 288.43 363.5 301.06"
                    style="fill:#9575CD"></polygon>
                <polygon
                    points="363.5 301.06 323.09 301.06 317.95 288.43 358.36 288.43 363.5 301.06"
                    style="opacity:0.30000000000000004"></polygon>
                <polygon
                    points="357.02 301.06 330.43 301.06 335.57 288.43 351.88 288.43 357.02 301.06"
                    style="fill:#9575CD"></polygon>
                <polygon
                    points="357.02 301.06 330.43 301.06 335.57 288.43 351.88 288.43 357.02 301.06"
                    style="fill:#fafafa;opacity:0.2"></polygon>
                <polygon
                    points="397.43 301.06 357.02 301.06 351.88 288.43 392.29 288.43 397.43 301.06"
                    style="fill:#9575CD"></polygon>
                <polygon
                    points="397.43 301.06 357.02 301.06 351.88 288.43 392.29 288.43 397.43 301.06"
                    style="opacity:0.30000000000000004"></polygon>
                <polygon
                    points="390.96 301.06 364.37 301.06 369.5 288.43 385.82 288.43 390.96 301.06"
                    style="fill:#9575CD"></polygon>
                <polygon
                    points="390.96 301.06 364.37 301.06 369.5 288.43 385.82 288.43 390.96 301.06"
                    style="fill:#fafafa;opacity:0.2"></polygon>
                <polygon
                    points="431.36 301.06 390.96 301.06 385.82 288.43 426.22 288.43 431.36 301.06"
                    style="fill:#9575CD"></polygon>
                <polygon
                    points="431.36 301.06 390.96 301.06 385.82 288.43 426.22 288.43 431.36 301.06"
                    style="opacity:0.30000000000000004"></polygon>
                <polygon
                    points="424.89 301.06 398.3 301.06 403.44 288.43 419.75 288.43 424.89 301.06"
                    style="fill:#9575CD"></polygon>
                <polygon
                    points="424.89 301.06 398.3 301.06 403.44 288.43 419.75 288.43 424.89 301.06"
                    style="fill:#fafafa;opacity:0.2"></polygon>
                <polygon
                    points="465.3 301.06 424.89 301.06 419.75 288.43 460.16 288.43 465.3 301.06"
                    style="fill:#9575CD"></polygon>
                <polygon
                    points="465.3 301.06 424.89 301.06 419.75 288.43 460.16 288.43 465.3 301.06"
                    style="opacity:0.30000000000000004"></polygon>
                <polygon
                    points="196.24 288.43 169.65 288.43 174.79 275.81 191.1 275.81 196.24 288.43"
                    style="fill:#9575CD"></polygon>
                <polygon
                    points="196.24 288.43 169.65 288.43 174.79 275.81 191.1 275.81 196.24 288.43"
                    style="fill:#fafafa;opacity:0.2"></polygon>
                <polygon
                    points="236.65 288.43 196.24 288.43 191.1 275.81 231.51 275.81 236.65 288.43"
                    style="fill:#9575CD"></polygon>
                <polygon
                    points="236.65 288.43 196.24 288.43 191.1 275.81 231.51 275.81 236.65 288.43"
                    style="opacity:0.30000000000000004"></polygon>
                <polygon
                    points="230.18 288.43 203.58 288.43 208.72 275.81 225.03 275.81 230.18 288.43"
                    style="fill:#9575CD"></polygon>
                <polygon
                    points="230.18 288.43 203.58 288.43 208.72 275.81 225.03 275.81 230.18 288.43"
                    style="fill:#fafafa;opacity:0.2"></polygon>
                <polygon
                    points="270.58 288.43 230.18 288.43 225.03 275.81 265.44 275.81 270.58 288.43"
                    style="fill:#9575CD"></polygon>
                <polygon
                    points="270.58 288.43 230.18 288.43 225.03 275.81 265.44 275.81 270.58 288.43"
                    style="opacity:0.30000000000000004"></polygon>
                <polygon
                    points="264.11 288.43 237.52 288.43 242.66 275.81 258.97 275.81 264.11 288.43"
                    style="fill:#9575CD"></polygon>
                <polygon
                    points="264.11 288.43 237.52 288.43 242.66 275.81 258.97 275.81 264.11 288.43"
                    style="fill:#fafafa;opacity:0.2"></polygon>
                <polygon
                    points="304.51 288.43 264.11 288.43 258.97 275.81 299.37 275.81 304.51 288.43"
                    style="fill:#9575CD"></polygon>
                <polygon
                    points="304.51 288.43 264.11 288.43 258.97 275.81 299.37 275.81 304.51 288.43"
                    style="opacity:0.30000000000000004"></polygon>
                <polygon
                    points="298.04 288.43 271.45 288.43 276.59 275.81 292.9 275.81 298.04 288.43"
                    style="fill:#9575CD"></polygon>
                <polygon
                    points="298.04 288.43 271.45 288.43 276.59 275.81 292.9 275.81 298.04 288.43"
                    style="fill:#fafafa;opacity:0.2"></polygon>
                <polygon
                    points="338.45 288.43 298.04 288.43 292.9 275.81 333.31 275.81 338.45 288.43"
                    style="fill:#9575CD"></polygon>
                <polygon
                    points="338.45 288.43 298.04 288.43 292.9 275.81 333.31 275.81 338.45 288.43"
                    style="opacity:0.30000000000000004"></polygon>
                <polygon
                    points="331.98 288.43 305.38 288.43 310.52 275.81 326.84 275.81 331.98 288.43"
                    style="fill:#9575CD"></polygon>
                <polygon
                    points="331.98 288.43 305.38 288.43 310.52 275.81 326.84 275.81 331.98 288.43"
                    style="fill:#fafafa;opacity:0.2"></polygon>
                <polygon
                    points="372.38 288.43 331.98 288.43 326.84 275.81 367.24 275.81 372.38 288.43"
                    style="fill:#9575CD"></polygon>
                <polygon
                    points="372.38 288.43 331.98 288.43 326.84 275.81 367.24 275.81 372.38 288.43"
                    style="opacity:0.30000000000000004"></polygon>
                <polygon
                    points="365.91 288.43 339.32 288.43 344.46 275.81 360.77 275.81 365.91 288.43"
                    style="fill:#9575CD"></polygon>
                <polygon
                    points="365.91 288.43 339.32 288.43 344.46 275.81 360.77 275.81 365.91 288.43"
                    style="fill:#fafafa;opacity:0.2"></polygon>
                <polygon
                    points="406.31 288.43 365.91 288.43 360.77 275.81 401.18 275.81 406.31 288.43"
                    style="fill:#9575CD"></polygon>
                <polygon
                    points="406.31 288.43 365.91 288.43 360.77 275.81 401.18 275.81 406.31 288.43"
                    style="opacity:0.30000000000000004"></polygon>
                <polygon
                    points="399.84 288.43 373.25 288.43 378.39 275.81 394.7 275.81 399.84 288.43"
                    style="fill:#9575CD"></polygon>
                <polygon
                    points="399.84 288.43 373.25 288.43 378.39 275.81 394.7 275.81 399.84 288.43"
                    style="fill:#fafafa;opacity:0.2"></polygon>
                <polygon
                    points="440.25 288.43 399.84 288.43 394.7 275.81 435.11 275.81 440.25 288.43"
                    style="fill:#9575CD"></polygon>
                <polygon
                    points="440.25 288.43 399.84 288.43 394.7 275.81 435.11 275.81 440.25 288.43"
                    style="opacity:0.30000000000000004"></polygon>
                <polygon
                    points="206.6 275.81 180.01 275.81 185.15 263.19 201.47 263.19 206.6 275.81"
                    style="fill:#9575CD"></polygon>
                <polygon
                    points="206.6 275.81 180.01 275.81 185.15 263.19 201.47 263.19 206.6 275.81"
                    style="fill:#fafafa;opacity:0.2"></polygon>
                <polygon
                    points="247.01 275.81 206.6 275.81 201.47 263.19 241.87 263.19 247.01 275.81"
                    style="fill:#9575CD"></polygon>
                <polygon
                    points="247.01 275.81 206.6 275.81 201.47 263.19 241.87 263.19 247.01 275.81"
                    style="opacity:0.30000000000000004"></polygon>
                <polygon
                    points="240.54 275.81 213.95 275.81 219.09 263.19 235.4 263.19 240.54 275.81"
                    style="fill:#9575CD"></polygon>
                <polygon
                    points="240.54 275.81 213.95 275.81 219.09 263.19 235.4 263.19 240.54 275.81"
                    style="fill:#fafafa;opacity:0.2"></polygon>
                <polygon
                    points="280.94 275.81 240.54 275.81 235.4 263.19 275.81 263.19 280.94 275.81"
                    style="fill:#9575CD"></polygon>
                <polygon
                    points="280.94 275.81 240.54 275.81 235.4 263.19 275.81 263.19 280.94 275.81"
                    style="opacity:0.30000000000000004"></polygon>
                <polygon
                    points="274.47 275.81 247.88 275.81 253.02 263.19 269.33 263.19 274.47 275.81"
                    style="fill:#9575CD"></polygon>
                <polygon
                    points="274.47 275.81 247.88 275.81 253.02 263.19 269.33 263.19 274.47 275.81"
                    style="fill:#fafafa;opacity:0.2"></polygon>
                <polygon
                    points="314.88 275.81 274.47 275.81 269.33 263.19 309.74 263.19 314.88 275.81"
                    style="fill:#9575CD"></polygon>
                <polygon
                    points="314.88 275.81 274.47 275.81 269.33 263.19 309.74 263.19 314.88 275.81"
                    style="opacity:0.30000000000000004"></polygon>
                <polygon
                    points="308.41 275.81 281.81 275.81 286.95 263.19 303.27 263.19 308.41 275.81"
                    style="fill:#9575CD"></polygon>
                <polygon
                    points="308.41 275.81 281.81 275.81 286.95 263.19 303.27 263.19 308.41 275.81"
                    style="fill:#fafafa;opacity:0.2"></polygon>
                <polygon
                    points="348.81 275.81 308.41 275.81 303.27 263.19 343.67 263.19 348.81 275.81"
                    style="fill:#9575CD"></polygon>
                <polygon
                    points="348.81 275.81 308.41 275.81 303.27 263.19 343.67 263.19 348.81 275.81"
                    style="opacity:0.30000000000000004"></polygon>
                <polygon
                    points="342.34 275.81 315.75 275.81 320.89 263.19 337.2 263.19 342.34 275.81"
                    style="fill:#9575CD"></polygon>
                <polygon
                    points="342.34 275.81 315.75 275.81 320.89 263.19 337.2 263.19 342.34 275.81"
                    style="fill:#fafafa;opacity:0.2"></polygon>
                <polygon
                    points="382.74 275.81 342.34 275.81 337.2 263.19 377.61 263.19 382.74 275.81"
                    style="fill:#9575CD"></polygon>
                <polygon
                    points="382.74 275.81 342.34 275.81 337.2 263.19 377.61 263.19 382.74 275.81"
                    style="opacity:0.30000000000000004"></polygon>
                <polygon
                    points="376.27 275.81 349.68 275.81 354.82 263.19 371.13 263.19 376.27 275.81"
                    style="fill:#9575CD"></polygon>
                <polygon
                    points="376.27 275.81 349.68 275.81 354.82 263.19 371.13 263.19 376.27 275.81"
                    style="fill:#fafafa;opacity:0.2"></polygon>
                <polygon
                    points="416.68 275.81 376.27 275.81 371.13 263.19 411.54 263.19 416.68 275.81"
                    style="fill:#9575CD"></polygon>
                <polygon
                    points="416.68 275.81 376.27 275.81 371.13 263.19 411.54 263.19 416.68 275.81"
                    style="opacity:0.30000000000000004"></polygon>
                <polygon
                    points="410.21 275.81 383.62 275.81 388.75 263.19 405.07 263.19 410.21 275.81"
                    style="fill:#9575CD"></polygon>
                <polygon
                    points="410.21 275.81 383.62 275.81 388.75 263.19 405.07 263.19 410.21 275.81"
                    style="fill:#fafafa;opacity:0.2"></polygon>
                <polygon
                    points="450.61 275.81 410.21 275.81 405.07 263.19 445.47 263.19 450.61 275.81"
                    style="fill:#9575CD"></polygon>
                <polygon
                    points="450.61 275.81 410.21 275.81 405.07 263.19 445.47 263.19 450.61 275.81"
                    style="opacity:0.30000000000000004"></polygon>
                <polygon points="135.45 364.17 108.86 364.17 114 351.55 130.31 351.55 135.45 364.17"
                    style="fill:#9575CD"></polygon>
                <polygon points="135.45 364.17 108.86 364.17 114 351.55 130.31 351.55 135.45 364.17"
                    style="fill:#fafafa;opacity:0.2"></polygon>
                <polygon
                    points="175.85 364.17 135.45 364.17 130.31 351.55 170.72 351.55 175.85 364.17"
                    style="fill:#9575CD"></polygon>
                <polygon
                    points="175.85 364.17 135.45 364.17 130.31 351.55 170.72 351.55 175.85 364.17"
                    style="opacity:0.30000000000000004"></polygon>
                <polygon
                    points="169.38 364.17 142.79 364.17 147.93 351.55 164.24 351.55 169.38 364.17"
                    style="fill:#9575CD"></polygon>
                <polygon
                    points="169.38 364.17 142.79 364.17 147.93 351.55 164.24 351.55 169.38 364.17"
                    style="fill:#fafafa;opacity:0.2"></polygon>
                <polygon
                    points="209.79 364.17 169.38 364.17 164.24 351.55 204.65 351.55 209.79 364.17"
                    style="fill:#9575CD"></polygon>
                <polygon
                    points="209.79 364.17 169.38 364.17 164.24 351.55 204.65 351.55 209.79 364.17"
                    style="opacity:0.30000000000000004"></polygon>
                <polygon
                    points="203.32 364.17 176.72 364.17 181.86 351.55 198.18 351.55 203.32 364.17"
                    style="fill:#9575CD"></polygon>
                <polygon
                    points="203.32 364.17 176.72 364.17 181.86 351.55 198.18 351.55 203.32 364.17"
                    style="fill:#fafafa;opacity:0.2"></polygon>
                <polygon
                    points="243.72 364.17 203.32 364.17 198.18 351.55 238.58 351.55 243.72 364.17"
                    style="fill:#9575CD"></polygon>
                <polygon
                    points="243.72 364.17 203.32 364.17 198.18 351.55 238.58 351.55 243.72 364.17"
                    style="opacity:0.30000000000000004"></polygon>
                <polygon
                    points="237.25 364.17 210.66 364.17 215.8 351.55 232.11 351.55 237.25 364.17"
                    style="fill:#9575CD"></polygon>
                <polygon
                    points="237.25 364.17 210.66 364.17 215.8 351.55 232.11 351.55 237.25 364.17"
                    style="fill:#fafafa;opacity:0.2"></polygon>
                <polygon
                    points="277.65 364.17 237.25 364.17 232.11 351.55 272.51 351.55 277.65 364.17"
                    style="fill:#9575CD"></polygon>
                <polygon
                    points="277.65 364.17 237.25 364.17 232.11 351.55 272.51 351.55 277.65 364.17"
                    style="opacity:0.30000000000000004"></polygon>
                <polygon
                    points="271.18 364.17 244.59 364.17 249.73 351.55 266.04 351.55 271.18 364.17"
                    style="fill:#9575CD"></polygon>
                <polygon
                    points="271.18 364.17 244.59 364.17 249.73 351.55 266.04 351.55 271.18 364.17"
                    style="fill:#fafafa;opacity:0.2"></polygon>
                <polygon
                    points="311.59 364.17 271.18 364.17 266.04 351.55 306.45 351.55 311.59 364.17"
                    style="fill:#9575CD"></polygon>
                <polygon
                    points="311.59 364.17 271.18 364.17 266.04 351.55 306.45 351.55 311.59 364.17"
                    style="opacity:0.30000000000000004"></polygon>
                <polygon
                    points="305.12 364.17 278.52 364.17 283.66 351.55 299.98 351.55 305.12 364.17"
                    style="fill:#9575CD"></polygon>
                <polygon
                    points="305.12 364.17 278.52 364.17 283.66 351.55 299.98 351.55 305.12 364.17"
                    style="fill:#fafafa;opacity:0.2"></polygon>
                <polygon
                    points="345.52 364.17 305.12 364.17 299.98 351.55 340.38 351.55 345.52 364.17"
                    style="fill:#9575CD"></polygon>
                <polygon
                    points="345.52 364.17 305.12 364.17 299.98 351.55 340.38 351.55 345.52 364.17"
                    style="opacity:0.30000000000000004"></polygon>
                <polygon
                    points="339.05 364.17 312.46 364.17 317.6 351.55 333.91 351.55 339.05 364.17"
                    style="fill:#9575CD"></polygon>
                <polygon
                    points="339.05 364.17 312.46 364.17 317.6 351.55 333.91 351.55 339.05 364.17"
                    style="fill:#fafafa;opacity:0.2"></polygon>
                <polygon
                    points="379.45 364.17 339.05 364.17 333.91 351.55 374.32 351.55 379.45 364.17"
                    style="fill:#9575CD"></polygon>
                <polygon
                    points="379.45 364.17 339.05 364.17 333.91 351.55 374.32 351.55 379.45 364.17"
                    style="opacity:0.30000000000000004"></polygon>
                <polygon
                    points="372.98 364.17 346.39 364.17 351.53 351.55 367.84 351.55 372.98 364.17"
                    style="fill:#9575CD"></polygon>
                <polygon
                    points="372.98 364.17 346.39 364.17 351.53 351.55 367.84 351.55 372.98 364.17"
                    style="fill:#fafafa;opacity:0.2"></polygon>
                <polygon
                    points="413.39 364.17 372.98 364.17 367.84 351.55 408.25 351.55 413.39 364.17"
                    style="fill:#9575CD"></polygon>
                <polygon
                    points="413.39 364.17 372.98 364.17 367.84 351.55 408.25 351.55 413.39 364.17"
                    style="opacity:0.30000000000000004"></polygon>
                <polygon
                    points="145.81 351.55 119.22 351.55 124.36 338.93 140.67 338.93 145.81 351.55"
                    style="fill:#9575CD"></polygon>
                <polygon
                    points="145.81 351.55 119.22 351.55 124.36 338.93 140.67 338.93 145.81 351.55"
                    style="fill:#fafafa;opacity:0.2"></polygon>
                <polygon
                    points="186.22 351.55 145.81 351.55 140.67 338.93 181.08 338.93 186.22 351.55"
                    style="fill:#9575CD"></polygon>
                <polygon
                    points="186.22 351.55 145.81 351.55 140.67 338.93 181.08 338.93 186.22 351.55"
                    style="opacity:0.30000000000000004"></polygon>
                <polygon
                    points="179.75 351.55 153.16 351.55 158.29 338.93 174.61 338.93 179.75 351.55"
                    style="fill:#9575CD"></polygon>
                <polygon
                    points="179.75 351.55 153.16 351.55 158.29 338.93 174.61 338.93 179.75 351.55"
                    style="fill:#fafafa;opacity:0.2"></polygon>
                <polygon
                    points="220.15 351.55 179.75 351.55 174.61 338.93 215.01 338.93 220.15 351.55"
                    style="fill:#9575CD"></polygon>
                <polygon
                    points="220.15 351.55 179.75 351.55 174.61 338.93 215.01 338.93 220.15 351.55"
                    style="opacity:0.30000000000000004"></polygon>
                <polygon
                    points="213.68 351.55 187.09 351.55 192.23 338.93 208.54 338.93 213.68 351.55"
                    style="fill:#9575CD"></polygon>
                <polygon
                    points="213.68 351.55 187.09 351.55 192.23 338.93 208.54 338.93 213.68 351.55"
                    style="fill:#fafafa;opacity:0.2"></polygon>
                <polygon
                    points="254.09 351.55 213.68 351.55 208.54 338.93 248.95 338.93 254.09 351.55"
                    style="fill:#9575CD"></polygon>
                <polygon
                    points="254.09 351.55 213.68 351.55 208.54 338.93 248.95 338.93 254.09 351.55"
                    style="opacity:0.30000000000000004"></polygon>
                <polygon
                    points="247.61 351.55 221.02 351.55 226.16 338.93 242.47 338.93 247.61 351.55"
                    style="fill:#9575CD"></polygon>
                <polygon
                    points="247.61 351.55 221.02 351.55 226.16 338.93 242.47 338.93 247.61 351.55"
                    style="fill:#fafafa;opacity:0.2"></polygon>
                <polygon
                    points="288.02 351.55 247.61 351.55 242.47 338.93 282.88 338.93 288.02 351.55"
                    style="fill:#9575CD"></polygon>
                <polygon
                    points="288.02 351.55 247.61 351.55 242.47 338.93 282.88 338.93 288.02 351.55"
                    style="opacity:0.30000000000000004"></polygon>
                <polygon
                    points="281.55 351.55 254.96 351.55 260.1 338.93 276.41 338.93 281.55 351.55"
                    style="fill:#9575CD"></polygon>
                <polygon
                    points="281.55 351.55 254.96 351.55 260.1 338.93 276.41 338.93 281.55 351.55"
                    style="fill:#fafafa;opacity:0.2"></polygon>
                <polygon
                    points="321.95 351.55 281.55 351.55 276.41 338.93 316.81 338.93 321.95 351.55"
                    style="fill:#9575CD"></polygon>
                <polygon
                    points="321.95 351.55 281.55 351.55 276.41 338.93 316.81 338.93 321.95 351.55"
                    style="opacity:0.30000000000000004"></polygon>
                <polygon
                    points="315.48 351.55 288.89 351.55 294.03 338.93 310.34 338.93 315.48 351.55"
                    style="fill:#9575CD"></polygon>
                <polygon
                    points="315.48 351.55 288.89 351.55 294.03 338.93 310.34 338.93 315.48 351.55"
                    style="fill:#fafafa;opacity:0.2"></polygon>
                <polygon
                    points="355.89 351.55 315.48 351.55 310.34 338.93 350.75 338.93 355.89 351.55"
                    style="fill:#9575CD"></polygon>
                <polygon
                    points="355.89 351.55 315.48 351.55 310.34 338.93 350.75 338.93 355.89 351.55"
                    style="opacity:0.30000000000000004"></polygon>
                <polygon
                    points="349.41 351.55 322.82 351.55 327.96 338.93 344.27 338.93 349.41 351.55"
                    style="fill:#9575CD"></polygon>
                <polygon
                    points="349.41 351.55 322.82 351.55 327.96 338.93 344.27 338.93 349.41 351.55"
                    style="fill:#fafafa;opacity:0.2"></polygon>
                <polygon
                    points="389.82 351.55 349.41 351.55 344.27 338.93 384.68 338.93 389.82 351.55"
                    style="fill:#9575CD"></polygon>
                <polygon
                    points="389.82 351.55 349.41 351.55 344.27 338.93 384.68 338.93 389.82 351.55"
                    style="opacity:0.30000000000000004"></polygon>
                <polygon
                    points="383.35 351.55 356.76 351.55 361.89 338.93 378.21 338.93 383.35 351.55"
                    style="fill:#9575CD"></polygon>
                <polygon
                    points="383.35 351.55 356.76 351.55 361.89 338.93 378.21 338.93 383.35 351.55"
                    style="fill:#fafafa;opacity:0.2"></polygon>
                <polygon
                    points="423.75 351.55 383.35 351.55 378.21 338.93 418.61 338.93 423.75 351.55"
                    style="fill:#9575CD"></polygon>
                <polygon
                    points="423.75 351.55 383.35 351.55 378.21 338.93 418.61 338.93 423.75 351.55"
                    style="opacity:0.30000000000000004"></polygon>
                <polygon points="154.7 338.93 128.11 338.93 133.25 326.3 149.56 326.3 154.7 338.93"
                    style="fill:#9575CD"></polygon>
                <polygon points="154.7 338.93 128.11 338.93 133.25 326.3 149.56 326.3 154.7 338.93"
                    style="fill:#fafafa;opacity:0.2"></polygon>
                <polygon points="195.1 338.93 154.7 338.93 149.56 326.3 189.96 326.3 195.1 338.93"
                    style="fill:#9575CD"></polygon>
                <polygon points="195.1 338.93 154.7 338.93 149.56 326.3 189.96 326.3 195.1 338.93"
                    style="opacity:0.30000000000000004"></polygon>
                <polygon
                    points="188.63 338.93 162.04 338.93 167.18 326.3 183.49 326.3 188.63 338.93"
                    style="fill:#9575CD"></polygon>
                <polygon
                    points="188.63 338.93 162.04 338.93 167.18 326.3 183.49 326.3 188.63 338.93"
                    style="fill:#fafafa;opacity:0.2"></polygon>
                <polygon points="229.04 338.93 188.63 338.93 183.49 326.3 223.9 326.3 229.04 338.93"
                    style="fill:#9575CD"></polygon>
                <polygon points="229.04 338.93 188.63 338.93 183.49 326.3 223.9 326.3 229.04 338.93"
                    style="opacity:0.30000000000000004"></polygon>
                <polygon
                    points="222.56 338.93 195.97 338.93 201.11 326.3 217.43 326.3 222.56 338.93"
                    style="fill:#9575CD"></polygon>
                <polygon
                    points="222.56 338.93 195.97 338.93 201.11 326.3 217.43 326.3 222.56 338.93"
                    style="fill:#fafafa;opacity:0.2"></polygon>
                <polygon
                    points="262.97 338.93 222.56 338.93 217.43 326.3 257.83 326.3 262.97 338.93"
                    style="fill:#9575CD"></polygon>
                <polygon
                    points="262.97 338.93 222.56 338.93 217.43 326.3 257.83 326.3 262.97 338.93"
                    style="opacity:0.30000000000000004"></polygon>
                <polygon points="256.5 338.93 229.91 338.93 235.05 326.3 251.36 326.3 256.5 338.93"
                    style="fill:#9575CD"></polygon>
                <polygon points="256.5 338.93 229.91 338.93 235.05 326.3 251.36 326.3 256.5 338.93"
                    style="fill:#fafafa;opacity:0.2"></polygon>
                <polygon points="296.9 338.93 256.5 338.93 251.36 326.3 291.76 326.3 296.9 338.93"
                    style="fill:#9575CD"></polygon>
                <polygon points="296.9 338.93 256.5 338.93 251.36 326.3 291.76 326.3 296.9 338.93"
                    style="opacity:0.30000000000000004"></polygon>
                <polygon
                    points="290.43 338.93 263.84 338.93 268.98 326.3 285.29 326.3 290.43 338.93"
                    style="fill:#9575CD"></polygon>
                <polygon
                    points="290.43 338.93 263.84 338.93 268.98 326.3 285.29 326.3 290.43 338.93"
                    style="fill:#fafafa;opacity:0.2"></polygon>
                <polygon points="330.84 338.93 290.43 338.93 285.29 326.3 325.7 326.3 330.84 338.93"
                    style="fill:#9575CD"></polygon>
                <polygon points="330.84 338.93 290.43 338.93 285.29 326.3 325.7 326.3 330.84 338.93"
                    style="opacity:0.30000000000000004"></polygon>
                <polygon
                    points="324.37 338.93 297.77 338.93 302.91 326.3 319.23 326.3 324.37 338.93"
                    style="fill:#9575CD"></polygon>
                <polygon
                    points="324.37 338.93 297.77 338.93 302.91 326.3 319.23 326.3 324.37 338.93"
                    style="fill:#fafafa;opacity:0.2"></polygon>
                <polygon
                    points="364.77 338.93 324.37 338.93 319.23 326.3 359.63 326.3 364.77 338.93"
                    style="fill:#9575CD"></polygon>
                <polygon
                    points="364.77 338.93 324.37 338.93 319.23 326.3 359.63 326.3 364.77 338.93"
                    style="opacity:0.30000000000000004"></polygon>
                <polygon points="358.3 338.93 331.71 338.93 336.85 326.3 353.16 326.3 358.3 338.93"
                    style="fill:#9575CD"></polygon>
                <polygon points="358.3 338.93 331.71 338.93 336.85 326.3 353.16 326.3 358.3 338.93"
                    style="fill:#fafafa;opacity:0.2"></polygon>
                <polygon points="398.7 338.93 358.3 338.93 353.16 326.3 393.56 326.3 398.7 338.93"
                    style="fill:#9575CD"></polygon>
                <polygon points="398.7 338.93 358.3 338.93 353.16 326.3 393.56 326.3 398.7 338.93"
                    style="opacity:0.30000000000000004"></polygon>
                <polygon points="165.06 326.3 138.47 326.3 143.61 313.68 159.92 313.68 165.06 326.3"
                    style="fill:#9575CD"></polygon>
                <polygon points="165.06 326.3 138.47 326.3 143.61 313.68 159.92 313.68 165.06 326.3"
                    style="fill:#fafafa;opacity:0.2"></polygon>
                <polygon points="205.47 326.3 165.06 326.3 159.92 313.68 200.33 313.68 205.47 326.3"
                    style="fill:#9575CD"></polygon>
                <polygon points="205.47 326.3 165.06 326.3 159.92 313.68 200.33 313.68 205.47 326.3"
                    style="opacity:0.30000000000000004"></polygon>
                <polygon points="199 326.3 172.4 326.3 177.54 313.68 193.86 313.68 199 326.3"
                    style="fill:#9575CD"></polygon>
                <polygon points="199 326.3 172.4 326.3 177.54 313.68 193.86 313.68 199 326.3"
                    style="fill:#fafafa;opacity:0.2"></polygon>
                <polygon points="239.4 326.3 199 326.3 193.86 313.68 234.26 313.68 239.4 326.3"
                    style="fill:#9575CD"></polygon>
                <polygon points="239.4 326.3 199 326.3 193.86 313.68 234.26 313.68 239.4 326.3"
                    style="opacity:0.30000000000000004"></polygon>
                <polygon points="232.93 326.3 206.34 326.3 211.48 313.68 227.79 313.68 232.93 326.3"
                    style="fill:#9575CD"></polygon>
                <polygon points="232.93 326.3 206.34 326.3 211.48 313.68 227.79 313.68 232.93 326.3"
                    style="fill:#fafafa;opacity:0.2"></polygon>
                <polygon points="273.33 326.3 232.93 326.3 227.79 313.68 268.19 313.68 273.33 326.3"
                    style="fill:#9575CD"></polygon>
                <polygon points="273.33 326.3 232.93 326.3 227.79 313.68 268.19 313.68 273.33 326.3"
                    style="opacity:0.30000000000000004"></polygon>
                <polygon points="266.86 326.3 240.27 326.3 245.41 313.68 261.72 313.68 266.86 326.3"
                    style="fill:#9575CD"></polygon>
                <polygon points="266.86 326.3 240.27 326.3 245.41 313.68 261.72 313.68 266.86 326.3"
                    style="fill:#fafafa;opacity:0.2"></polygon>
                <polygon points="307.27 326.3 266.86 326.3 261.72 313.68 302.13 313.68 307.27 326.3"
                    style="fill:#9575CD"></polygon>
                <polygon points="307.27 326.3 266.86 326.3 261.72 313.68 302.13 313.68 307.27 326.3"
                    style="opacity:0.30000000000000004"></polygon>
                <polygon points="300.8 326.3 274.2 326.3 279.34 313.68 295.66 313.68 300.8 326.3"
                    style="fill:#9575CD"></polygon>
                <polygon points="300.8 326.3 274.2 326.3 279.34 313.68 295.66 313.68 300.8 326.3"
                    style="fill:#fafafa;opacity:0.2"></polygon>
                <polygon points="341.2 326.3 300.8 326.3 295.66 313.68 336.06 313.68 341.2 326.3"
                    style="fill:#9575CD"></polygon>
                <polygon points="341.2 326.3 300.8 326.3 295.66 313.68 336.06 313.68 341.2 326.3"
                    style="opacity:0.30000000000000004"></polygon>
                <polygon points="334.73 326.3 308.14 326.3 313.28 313.68 329.59 313.68 334.73 326.3"
                    style="fill:#9575CD"></polygon>
                <polygon points="334.73 326.3 308.14 326.3 313.28 313.68 329.59 313.68 334.73 326.3"
                    style="fill:#fafafa;opacity:0.2"></polygon>
                <polygon points="375.13 326.3 334.73 326.3 329.59 313.68 370 313.68 375.13 326.3"
                    style="fill:#9575CD"></polygon>
                <polygon points="375.13 326.3 334.73 326.3 329.59 313.68 370 313.68 375.13 326.3"
                    style="opacity:0.30000000000000004"></polygon>
                <polygon points="368.66 326.3 342.07 326.3 347.21 313.68 363.52 313.68 368.66 326.3"
                    style="fill:#9575CD"></polygon>
                <polygon points="368.66 326.3 342.07 326.3 347.21 313.68 363.52 313.68 368.66 326.3"
                    style="fill:#fafafa;opacity:0.2"></polygon>
                <polygon points="409.07 326.3 368.66 326.3 363.52 313.68 403.93 313.68 409.07 326.3"
                    style="fill:#9575CD"></polygon>
                <polygon points="409.07 326.3 368.66 326.3 363.52 313.68 403.93 313.68 409.07 326.3"
                    style="opacity:0.30000000000000004"></polygon>
            </g>
        </g>
    </g>
    <g id="Character--inject-1">
        <path
            d="M222.18,160c5.66,1.34,11.46,2.68,17.19,3.9s11.49,2.33,17.13,3.09l2.09.24.51.05-.08,0s.05,0,.16,0a8.16,8.16,0,0,0,2.53-1.13,45,45,0,0,0,6.3-5c4.16-3.85,8.22-8.21,12.13-12.55l4.57,3.17a98.58,98.58,0,0,1-10.45,15.33,45.52,45.52,0,0,1-7.05,6.94,16.91,16.91,0,0,1-5.43,2.92,10.49,10.49,0,0,1-2,.4,9.42,9.42,0,0,1-1.2,0l-.61,0-2.38-.12a163.18,163.18,0,0,1-18.34-2.41c-6-1.1-11.88-2.4-17.83-4Z"
            style="fill:#7f3e3b"></path>
        <path
            d="M213.6,170.16c4,5.78,28,8,28,8l1.47-15.38A110.51,110.51,0,0,0,224.28,158C207.33,155.58,209.24,163.82,213.6,170.16Z"
            style="fill:#9575CD"></path>
        <path
            d="M213.6,170.16c4,5.78,28,8,28,8l1.47-15.38A110.51,110.51,0,0,0,224.28,158C207.33,155.58,209.24,163.82,213.6,170.16Z"
            style="fill:#fff;opacity:0.2"></path>
        <path d="M279.2,150.52l1.91-7.08,6.59,2.83s-2.78,7.63-5.29,7.25Z"
            style="fill:#7f3e3b"></path>
        <polygon points="286.55 139.06 292 138.72 287.7 146.27 281.11 143.44 286.55 139.06"
            style="fill:#7f3e3b"></polygon>
        <path
            d="M229.72,159.71s9.52,22.39,2.66,64.08H192.72c-.48-6.09,2.31-35.78-4.55-64.46a101.24,101.24,0,0,1,13.21-1.68,148.07,148.07,0,0,1,16.86,0A76.45,76.45,0,0,1,229.72,159.71Z"
            style="fill:#9575CD"></path>
        <path
            d="M229.72,159.71s9.52,22.39,2.66,64.08H192.72c-.48-6.09,2.31-35.78-4.55-64.46a101.24,101.24,0,0,1,13.21-1.68,148.07,148.07,0,0,1,16.86,0A76.45,76.45,0,0,1,229.72,159.71Z"
            style="fill:#fff;opacity:0.2"></path>
        <path
            d="M189.41,165.07a194.54,194.54,0,0,1,3.28,29.74A113.12,113.12,0,0,0,195.63,177C196.05,170.35,193.47,166.14,189.41,165.07Z"
            style="opacity:0.30000000000000004"></path>
        <path
            d="M217.89,191.47c-3.52-3.87-9.57-11.58-11.45-18.51h0l9.44-5,8.79,4.5c-.09,5.89-3.23,13.87-5.48,18.73C218.9,191.78,218.3,191.93,217.89,191.47Z"
            style="fill:#fafafa"></path>
        <path
            d="M202.4,138.67c1.25,5.43,2.65,15.36-1,19,0,0,1.59,4.49,11.67,4.49,11.08,0,5.19-4.49,5.19-4.49-6.1-1.44-6.1-5.93-5.19-10.14Z"
            style="fill:#7f3e3b"></path>
        <path
            d="M206.74,142.28l6.31,5.22a17.35,17.35,0,0,0-.42,3c-2.32-.33-5.58-2.87-5.91-5.29A7.88,7.88,0,0,1,206.74,142.28Z"
            style="opacity:0.2"></path>
        <path
            d="M218.7,135.57c1.64-1.4,2.38-9.77-.85-13.78s-6,5.71-6,5.71S213.33,140.17,218.7,135.57Z"
            style="fill:#263238"></path>
        <path
            d="M200,133c2.26,7,3.22,11.23,7.78,14.1a9.59,9.59,0,0,0,14.77-8.38c-.09-6.73-3.77-17.09-11.52-18.38A9.7,9.7,0,0,0,200,133Z"
            style="fill:#7f3e3b"></path>
        <path
            d="M218.88,118.54a2.7,2.7,0,0,0,.33-1.39,2.75,2.75,0,0,0-5-1.56,5.85,5.85,0,0,0-4.57-2,5.79,5.79,0,0,0-2.59.71,2.69,2.69,0,0,0-1.85-.64,2.76,2.76,0,0,0-2.64,2.42,4.79,4.79,0,0,0-.85-.06,4.45,4.45,0,0,0-4.29,4.59s0,0,0,.06a4.21,4.21,0,0,0-.51,0,3.61,3.61,0,0,0-3.48,3.74v.06A2.74,2.74,0,0,0,192,127a2.79,2.79,0,0,0,1.79,2.5,3.58,3.58,0,0,0,3.28,3.28c.39,3.5,1.65,8.92,5.74,6.12,1.56-1.07,3-7.56,1.45-12.06.12,0,.25,0,.38,0a4.41,4.41,0,0,0,3.43-1.85,5.86,5.86,0,0,0,5.14-.73,2.87,2.87,0,0,0,1,.16,2.8,2.8,0,0,0,1.32-.4,3.3,3.3,0,0,0,1.93.57,3.24,3.24,0,0,0,1.42-6.1Z"
            style="fill:#263238"></path>
        <path
            d="M198.79,141.54a7.32,7.32,0,0,0,5,2.07c2.47,0,3-2.34,1.67-4.3-1.18-1.75-3.88-3.87-6.06-2.93S197.15,139.93,198.79,141.54Z"
            style="fill:#7f3e3b"></path>
        <path
            d="M211.42,132.6c.14.58.57,1,1,.9s.57-.63.42-1.21-.58-1-1-.89S211.27,132,211.42,132.6Z"
            style="fill:#263238"></path>
        <path d="M218,131.15c.15.58.58,1,1,.9s.57-.62.42-1.2-.58-1-1-.9S217.87,130.57,218,131.15Z"
            style="fill:#263238"></path>
        <path d="M216,131.9a22.75,22.75,0,0,0,4.06,4.35,3.42,3.42,0,0,1-2.66,1.13Z"
            style="fill:#630f0f"></path>
        <path
            d="M214.87,139.49a5.08,5.08,0,0,1-3.33-1.2.17.17,0,0,1,0-.24.17.17,0,0,1,.25,0,5,5,0,0,0,4.24,1,.18.18,0,0,1,.21.13.17.17,0,0,1-.14.21A5.38,5.38,0,0,1,214.87,139.49Z"
            style="fill:#263238"></path>
        <path
            d="M208.8,130.93a.35.35,0,0,1-.14,0,.34.34,0,0,1-.18-.46,3.38,3.38,0,0,1,2.44-2,.37.37,0,0,1,.4.3.36.36,0,0,1-.3.4,2.69,2.69,0,0,0-1.9,1.61A.35.35,0,0,1,208.8,130.93Z"
            style="fill:#263238"></path>
        <path
            d="M220.25,128.28a.34.34,0,0,1-.27-.13,3,3,0,0,0-2.34-1.12.35.35,0,0,1-.06-.7,3.68,3.68,0,0,1,2.94,1.37.36.36,0,0,1-.05.5A.35.35,0,0,1,220.25,128.28Z"
            style="fill:#263238"></path>
        <path
            d="M196,170l-1.44,3.11c-.48,1.07-.95,2.15-1.41,3.23-.92,2.16-1.79,4.35-2.63,6.53s-1.58,4.38-2.29,6.58-1.26,4.39-1.72,6.57l0,.19v-.06a1,1,0,0,0,0-.16,1.08,1.08,0,0,0-.09-.32c-.08-.19-.17-.23-.13-.12a4.34,4.34,0,0,0,1.38,1.25,28,28,0,0,0,5.7,2.65,123.23,123.23,0,0,0,13.62,3.82l-.46,5.55a70.34,70.34,0,0,1-15.39-1.2,32.33,32.33,0,0,1-8.05-2.58,14.34,14.34,0,0,1-4.4-3.25,9.34,9.34,0,0,1-1.88-3.33,9.06,9.06,0,0,1-.38-2.14,9.71,9.71,0,0,1,0-1.08l.05-.52,0-.27a78,78,0,0,1,3.55-15.3q1.22-3.66,2.69-7.21c.5-1.18,1-2.35,1.55-3.52s1.08-2.29,1.73-3.54Z"
            style="fill:#7f3e3b"></path>
        <path
            d="M188.17,159.33c-7,1-14.17,26.71-14.17,26.71l16.87,6.42s4.24-11.05,7.14-19.63C201.05,163.84,195.65,158.23,188.17,159.33Z"
            style="fill:#9575CD"></path>
        <path
            d="M188.17,159.33c-7,1-14.17,26.71-14.17,26.71l16.87,6.42s4.24-11.05,7.14-19.63C201.05,163.84,195.65,158.23,188.17,159.33Z"
            style="fill:#fff;opacity:0.2"></path>
        <polygon points="198.81 412.37 206.23 412.37 207.19 395.2 199.78 395.2 198.81 412.37"
            style="fill:#7f3e3b"></polygon>
        <polygon points="199.77 395.2 207.19 395.2 206.69 404.05 199.27 404.05 199.77 395.2"
            style="opacity:0.2"></polygon>
        <path
            d="M206.62,411.51h-8.33a.52.52,0,0,0-.55.5l-.41,6.59a1.31,1.31,0,0,0,1.3,1.32c2.9-.05,4.29-.22,8-.22,2.25,0,11.83.24,14.94.24s3-3.08,1.71-3.36c-5.92-1.25-13.24-3-15.34-4.62A2.12,2.12,0,0,0,206.62,411.51Z"
            style="fill:#263238"></path>
        <path
            d="M209.24,412.79a2,2,0,0,0,1.39-.39.93.93,0,0,0,.21-.93.63.63,0,0,0-.39-.48c-.91-.36-3,1.07-3.24,1.24a.18.18,0,0,0-.07.17.19.19,0,0,0,.13.13A9.5,9.5,0,0,0,209.24,412.79Zm.86-1.53a.59.59,0,0,1,.23,0,.32.32,0,0,1,.19.24.66.66,0,0,1-.12.63c-.35.34-1.34.38-2.67.12A6,6,0,0,1,210.1,411.26Z"
            style="fill:#9575CD"></path>
        <path
            d="M207.31,412.53l.08,0c.74-.44,1.84-2,1.67-2.79a.66.66,0,0,0-.62-.52.89.89,0,0,0-.73.24c-.74.72-.58,2.85-.57,2.94a.16.16,0,0,0,.09.13A.11.11,0,0,0,207.31,412.53Zm1-3h.08c.26,0,.31.16.34.26.12.56-.67,1.74-1.28,2.26a3.81,3.81,0,0,1,.48-2.37A.54.54,0,0,1,208.32,409.53Z"
            style="fill:#9575CD"></path>
        <polygon points="264.69 394.05 271.99 392.78 270 375.7 262.7 376.97 264.69 394.05"
            style="fill:#7f3e3b"></polygon>
        <polygon points="262.7 376.98 270.01 375.71 271.03 384.51 263.72 385.78 262.7 376.98"
            style="opacity:0.2"></polygon>
        <path
            d="M272,391.89l-8.23-1.26a.53.53,0,0,0-.62.42l-1.4,6.45a1.32,1.32,0,0,0,1.09,1.5c2.87.39,4.27.43,7.89,1,2.23.34,11.66,2,14.74,2.48s3.45-2.58,2.19-3.06c-5.66-2.12-12.64-4.93-14.47-6.87A2,2,0,0,0,272,391.89Z"
            style="fill:#263238"></path>
        <path
            d="M232.38,223.79s23,53.77,27.65,74.51c5.11,22.71,13.77,83.56,13.77,83.56l-13.38,2.33S248.1,327.35,241,305.44c-7.71-23.77-38.5-81.65-38.5-81.65Z"
            style="fill:#263238"></path>
        <path
            d="M213.42,235.67l-.54,8.13c3.47,6.84,7.47,14.82,11.38,22.92C226,258.7,221.56,239.43,213.42,235.67Z"
            style="opacity:0.30000000000000004"></path>
        <path
            d="M219.11,223.79s-.13,56.65-1.33,77.88c-1.32,23.24-7.91,100.25-7.91,100.25H196.29s.41-75.13-.41-98.14c-.89-25-3.19-80-3.19-80Z"
            style="fill:#263238"></path>
        <polygon points="195.75 402.04 210.42 402.04 211.23 396.89 195.04 397.69 195.75 402.04"
            style="fill:#9575CD"></polygon>
        <polygon points="195.75 402.04 210.42 402.04 211.23 396.89 195.04 397.69 195.75 402.04"
            style="opacity:0.30000000000000004"></polygon>
        <polygon points="259.88 384.28 274.33 381.77 274.25 376.55 258.44 380.12 259.88 384.28"
            style="fill:#9575CD"></polygon>
        <polygon points="259.88 384.28 274.33 381.77 274.25 376.55 258.44 380.12 259.88 384.28"
            style="opacity:0.30000000000000004"></polygon>
        <path
            d="M274.44,393.55a2,2,0,0,0,1.43-.17,1,1,0,0,0,.36-.89.66.66,0,0,0-.32-.54c-.84-.49-3.13.61-3.39.74a.16.16,0,0,0-.09.15.15.15,0,0,0,.1.15A8.78,8.78,0,0,0,274.44,393.55Zm1.08-1.38a.48.48,0,0,1,.22.07.27.27,0,0,1,.15.27.64.64,0,0,1-.21.6c-.4.29-1.38.18-2.66-.29A6,6,0,0,1,275.52,392.17Z"
            style="fill:#9575CD"></path>
        <path
            d="M272.57,393a.14.14,0,0,0,.09,0c.79-.32,2.12-1.68,2.07-2.5a.66.66,0,0,0-.54-.61.87.87,0,0,0-.75.13c-.85.6-1,2.73-1,2.82a.14.14,0,0,0,.07.14A.09.09,0,0,0,272.57,393Zm1.45-2.82.08,0c.25.07.29.2.3.31,0,.57-.92,1.61-1.61,2a3.83,3.83,0,0,1,.84-2.27A.51.51,0,0,1,274,390.18Z"
            style="fill:#9575CD"></path>
        <path d="M205.88,203.21l6.08-1.67.84,7.69s-6,1.8-7.49-1.35Z" style="fill:#7f3e3b"></path>
        <polygon points="217.48 202.6 217.11 209.53 212.8 209.23 211.96 201.54 217.48 202.6"
            style="fill:#7f3e3b"></polygon>
    </g>
    <g id="safe-door--inject-1">
        <path
            d="M318.88,384.19c-31.94-4.81-56.2-64.51-56.2-133.65s24.26-128.84,56.2-133.65l29.77-4.48V388.67Z"
            style="fill:#9575CD"></path>
        <path
            d="M318.88,384.19c-31.94-4.81-56.2-64.51-56.2-133.65s24.26-128.84,56.2-133.65l29.77-4.48V388.67Z"
            style="opacity:0.30000000000000004"></path>
        <ellipse cx="348.65" cy="250.54" rx="52.17" ry="138.13" style="fill:#9575CD"></ellipse>
        <path
            d="M358.31,182c-16,0-28.89,30.69-28.89,68.55s12.93,68.54,28.89,68.54,28.89-30.68,28.89-68.54S374.27,182,358.31,182Zm23,68.55c0,10.89-1.76,20.79-4.64,28.22L368.33,250l8.18-28.17C379.51,229.3,381.35,239.4,381.35,250.54Zm-17.59-41.71c3.53,0,6.8,2.46,9.55,6.69l-7.47,25.91-8.62-29.6A9.53,9.53,0,0,1,363.76,208.83Zm-17.57,41.71c0-14.1,2.95-26.55,7.46-34.1L363.37,250l-9.9,34.32C349.06,276.76,346.19,264.45,346.19,250.54Zm17.57,41.71A9.66,9.66,0,0,1,357,289l8.84-30.47,7.71,26.64C370.75,289.66,367.39,292.25,363.76,292.25Z"
            style="fill:#fafafa;opacity:0.2"></path>
        <path
            d="M350.06,385.17c-23.5,0-48.66-54.1-48.66-134.63s25.16-134.63,48.66-134.63,48.67,54.1,48.67,134.63S373.57,385.17,350.06,385.17Zm0-268.26c-23,0-47.66,53.69-47.66,133.63S327,384.17,350.06,384.17s47.67-53.7,47.67-133.63S373.08,116.91,350.06,116.91Z"
            style="fill:#fafafa;opacity:0.4"></path>
    </g>
</svg>