<svg xmlns="http://www.w3.org/2000/svg" viewBox="0 0 200 200" id="vector">
    <path id="path"
        d="M 100 100 M 10.122 100 C 10.122 76.172 19.598 53.296 36.447 36.447 C 53.296 19.598 76.172 10.122 100 10.122 C 123.828 10.122 146.704 19.598 163.553 36.447 C 180.402 53.296 189.878 76.172 189.878 100 C 189.878 123.828 180.402 146.704 163.553 163.553 C 146.704 180.402 123.828 189.878 100 189.878 C 76.172 189.878 53.296 180.402 36.447 163.553 C 19.598 146.704 10.122 123.828 10.122 100"
        fill="#9075b4" />
    <g id="group" transform="translate(15 12) scale(0.88 0.88)">
        <path id="path_1"
            d="M 99.999 140.338 C 96.712 140.338 94.033 137.664 94.033 134.373 L 94.033 119.43 C 88.737 117.082 85.233 111.758 85.233 105.92 C 85.233 97.78 91.86 91.156 99.999 91.156 C 108.144 91.156 114.765 97.78 114.765 105.92 C 114.765 111.758 111.263 117.082 105.965 119.43 L 105.965 134.373 C 105.965 137.664 103.286 140.338 99.999 140.338 Z M 99.999 93.553 C 93.178 93.553 87.631 99.099 87.631 105.92 C 87.631 111.047 90.856 115.705 95.651 117.5 L 96.43 117.791 L 96.43 134.373 C 96.43 136.34 98.029 137.939 99.998 137.939 C 101.965 137.939 103.563 136.339 103.563 134.373 L 103.563 117.791 L 104.343 117.5 C 109.14 115.705 112.366 111.047 112.366 105.92 C 112.368 99.099 106.82 93.553 99.999 93.553 Z"
            fill="#6e4ea7" />
        <path id="path_2"
            d="M 119.839 69.598 L 129.237 69.598 L 129.237 59.263 C 129.237 53.352 124.424 48.54 118.514 48.54 L 81.484 48.54 C 75.57 48.54 70.762 53.352 70.762 59.263 L 70.762 69.598 L 80.159 69.598 L 80.159 64.012 C 80.159 60.664 82.885 57.942 86.232 57.942 L 113.77 57.942 C 117.111 57.942 119.838 60.664 119.838 64.012 L 119.838 69.598 Z"
            fill="#6e4ea7" />
        <path id="path_3"
            d="M 139.083 80.034 L 60.916 80.034 C 54.534 80.034 49.348 85.224 49.348 91.605 L 49.348 139.893 C 49.348 146.268 54.535 151.461 60.916 151.461 L 139.083 151.461 C 145.46 151.461 150.653 146.268 150.653 139.893 L 150.653 91.605 C 150.653 85.224 145.46 80.034 139.083 80.034 Z M 104.345 117.5 L 103.565 117.791 L 103.565 134.373 C 103.565 136.34 101.966 137.939 100 137.939 C 98.03 137.939 96.432 136.339 96.432 134.373 L 96.432 117.791 L 95.653 117.5 C 90.858 115.705 87.633 111.047 87.633 105.92 C 87.633 99.099 93.179 93.553 100.001 93.553 C 106.823 93.553 112.37 99.099 112.37 105.92 C 112.368 111.047 109.142 115.705 104.345 117.5 Z"
            fill="#6e4ea7" />
    </g>
    <g id="group_1" transform="translate(15 12) scale(0.85 0.85)">
        <path id="path_4"
            d="M 99.999 140.338 C 96.712 140.338 94.033 137.664 94.033 134.373 L 94.033 119.43 C 88.737 117.082 85.233 111.758 85.233 105.92 C 85.233 97.78 91.86 91.156 99.999 91.156 C 108.144 91.156 114.765 97.78 114.765 105.92 C 114.765 111.758 111.263 117.082 105.965 119.43 L 105.965 134.373 C 105.965 137.664 103.286 140.338 99.999 140.338 Z M 99.999 93.553 C 93.178 93.553 87.631 99.099 87.631 105.92 C 87.631 111.047 90.856 115.705 95.651 117.5 L 96.43 117.791 L 96.43 134.373 C 96.43 136.34 98.029 137.939 99.998 137.939 C 101.965 137.939 103.563 136.339 103.563 134.373 L 103.563 117.791 L 104.343 117.5 C 109.14 115.705 112.366 111.047 112.366 105.92 C 112.368 99.099 106.82 93.553 99.999 93.553 Z"
            fill="#ffffff" />
        <path id="path_5"
            d="M 119.839 69.598 L 129.237 69.598 L 129.237 59.263 C 129.237 53.352 124.424 48.54 118.514 48.54 L 81.484 48.54 C 75.57 48.54 70.762 53.352 70.762 59.263 L 70.762 69.598 L 80.159 69.598 L 80.159 64.012 C 80.159 60.664 82.885 57.942 86.232 57.942 L 113.77 57.942 C 117.111 57.942 119.838 60.664 119.838 64.012 L 119.838 69.598 Z"
            fill="#ffffff" />
        <path id="path_6"
            d="M 139.083 80.034 L 60.916 80.034 C 54.534 80.034 49.348 85.224 49.348 91.605 L 49.348 139.893 C 49.348 146.268 54.535 151.461 60.916 151.461 L 139.083 151.461 C 145.46 151.461 150.653 146.268 150.653 139.893 L 150.653 91.605 C 150.653 85.224 145.46 80.034 139.083 80.034 Z M 104.345 117.5 L 103.565 117.791 L 103.565 134.373 C 103.565 136.34 101.966 137.939 100 137.939 C 98.03 137.939 96.432 136.339 96.432 134.373 L 96.432 117.791 L 95.653 117.5 C 90.858 115.705 87.633 111.047 87.633 105.92 C 87.633 99.099 93.179 93.553 100.001 93.553 C 106.823 93.553 112.37 99.099 112.37 105.92 C 112.368 111.047 109.142 115.705 104.345 117.5 Z"
            fill="#ffffff" />
    </g>
</svg>
