<?xml version="1.0" encoding="utf-8"?><!-- Generator: Adobe Illustrator 16.0.0, SVG Export Plug-In . SVG Version: 6.00 Build 0)  -->
<!DOCTYPE svg PUBLIC "-//W3C//DTD SVG 1.1//EN" "http://www.w3.org/Graphics/SVG/1.1/DTD/svg11.dtd">
<svg version="1.1" id="Layer_1" xmlns="http://www.w3.org/2000/svg" x="0px" y="0px" width="200px"
    height="200px" viewBox="0 0 200 200" enable-background="new 0 0 200 200" xml:space="preserve">
<g>
	<g>
		<g>
			<path fill="#9075B4" d="M99.999,140.338c-3.287,0-5.966-2.674-5.966-5.965V119.43c-5.296-2.348-8.8-7.672-8.8-13.51
				c0-8.14,6.627-14.764,14.766-14.764c8.145,0,14.766,6.624,14.766,14.764c0,5.838-3.502,11.162-8.8,13.51v14.943
				C105.965,137.664,103.286,140.338,99.999,140.338z M99.999,93.553c-6.821,0-12.368,5.546-12.368,12.367
				c0,5.127,3.225,9.785,8.02,11.58l0.779,0.291v16.582c0,1.967,1.599,3.566,3.568,3.566c1.967,0,3.565-1.6,3.565-3.566v-16.582
				l0.78-0.291c4.797-1.795,8.023-6.453,8.023-11.58C112.368,99.099,106.82,93.553,99.999,93.553z" />
		</g>
        <g>
			<path fill="#9075B4" d="M119.839,69.598h9.398V59.263c0-5.911-4.813-10.723-10.723-10.723h-37.03
				c-5.914,0-10.722,4.812-10.722,10.723v10.335h9.397v-5.586c0-3.348,2.726-6.07,6.073-6.07h27.538c3.341,0,6.068,2.722,6.068,6.07
				V69.598z" />
		</g>
        <path fill="#9075B4" d="M139.083,80.034H60.916c-6.382,0-11.568,5.19-11.568,11.571v48.288c0,6.375,5.187,11.568,11.568,11.568
			h78.167c6.377,0,11.57-5.193,11.57-11.568V91.605C150.653,85.224,145.46,80.034,139.083,80.034z M104.345,117.5l-0.78,0.291
			v16.582c0,1.967-1.599,3.566-3.565,3.566c-1.97,0-3.568-1.6-3.568-3.566v-16.582l-0.779-0.291c-4.795-1.795-8.02-6.453-8.02-11.58
			c0-6.821,5.546-12.367,12.368-12.367s12.369,5.546,12.369,12.367C112.368,111.047,109.142,115.705,104.345,117.5z" />
	</g>
</g>
</svg>
